<?xml version="1.0" encoding="UTF-8"?>
<!DOCTYPE svg PUBLIC "-//W3C//DTD SVG 1.1//EN"
    "http://www.w3.org/Graphics/SVG/1.1/DTD/svg11.dtd">
<svg xmlns="http://www.w3.org/2000/svg" xmlns:xlink="http://www.w3.org/1999/xlink" version="1.1" width="200.0" height="206.66666666666666" font-size="1" viewBox="0 0 200 207" stroke="rgb(0,0,0)" stroke-opacity="1"><g><g fill="rgb(0,0,0)" fill-opacity="0.0"><g stroke="rgb(0,0,0)" stroke-opacity="1.0" stroke-width="0.8132240363721016" stroke-linecap="butt" stroke-linejoin="miter" font-size="1.0em" stroke-miterlimit="10.0"><g><path d="M 9.090909090909093,194.24242424242422 h 181.8181818181818 v -181.8181818181818 h -121.2121212121212 v 60.6060606060606 h 60.6060606060606 v 60.6060606060606 h -121.2121212121212 v 60.6060606060606 " /><g stroke-dasharray="6.0606060606060606,6.0606060606060606" stroke-dashoffset="0.0"><path d="M 69.69696969696969,121.5151515151515 l -43.63636363636363,72.72727272727272 " /></g><g stroke-dasharray="6.0606060606060606,6.0606060606060606" stroke-dashoffset="0.0"><path d="M 69.69696969696969,121.5151515151515 l 65.45454545454545,-109.09090909090908 " /></g><g fill="rgb(0,0,255)" fill-opacity="1.0" stroke-width="0.0"><g fill="rgb(0,0,255)" fill-opacity="1.0"><g fill="rgb(0,0,255)" fill-opacity="1.0"><path d="M 72.72727272727272,121.5151515151515 c 0.0,-1.6735901510024045 -1.3567128793006256,-3.0303030303030303 -3.0303030303030294 -3.0303030303030303c -1.6735901510024045,-1.024778410754815e-16 -3.0303030303030303,1.3567128793006253 -3.0303030303030303 3.0303030303030294c -2.04955682150963e-16,1.6735901510024045 1.3567128793006251,3.0303030303030303 3.030303030303029 3.0303030303030303c 1.6735901510024045,3.074335232264445e-16 3.0303030303030303,-1.3567128793006251 3.0303030303030307 -3.0303030303030294Z" /></g></g></g><g stroke="rgb(0,0,255)" stroke-opacity="1.0"><g><g><path d="M 69.69696969696969,121.5151515151515 l 14.520815426223662,-24.201359043706105 " /></g><g stroke-width="0.0"><g fill="rgb(0,0,255)" fill-opacity="1.0"><g fill="rgb(0,0,255)" fill-opacity="1.0"><g fill="rgb(0,0,255)" fill-opacity="1.0"><path d="" /></g></g></g><g fill="rgb(0,0,255)" fill-opacity="1.0"><g fill="rgb(0,0,255)" fill-opacity="1.0"><g fill="rgb(0,0,255)" fill-opacity="1.0"><path d="" /></g></g></g></g><g stroke-width="0.0"><g fill="rgb(0,0,255)" fill-opacity="1.0"><g fill="rgb(0,0,255)" fill-opacity="1.0"><g fill="rgb(0,0,255)" fill-opacity="1.0"><path d="M 87.87878787878786,91.2121212121212 l -1.9494509957695625,8.468436231485862 l -1.5763085469842033,-2.5921703268962526 l -3.029001369371613,-0.17101562291723638 Z" /></g></g></g><g fill="rgb(0,0,255)" fill-opacity="1.0"><g fill="rgb(0,0,255)" fill-opacity="1.0"><g fill="rgb(0,0,255)" fill-opacity="1.0"><path d="M 84.3530283360341,97.08838711671082 l -0.1352432128407436,0.22540535473457268 l 0.4287464628562721,0.25724787771376323 l -0.2935032500155285,-0.4826532324483359 l -0.1352432128407436,0.22540535473457268 l -0.4287464628562721,-0.25724787771376323 Z" /></g></g></g></g></g></g><g fill="rgb(255,0,0)" fill-opacity="1.0" stroke-width="0.0"><g fill="rgb(255,0,0)" fill-opacity="1.0"><g fill="rgb(255,0,0)" fill-opacity="1.0"><path d="M 138.1818181818182,12.424242424242408 c 0.0,-1.6735901510024045 -1.3567128793006256,-3.0303030303030303 -3.0303030303030294 -3.0303030303030303c -1.6735901510024045,-1.024778410754815e-16 -3.0303030303030303,1.3567128793006253 -3.0303030303030303 3.0303030303030294c -2.04955682150963e-16,1.6735901510024045 1.3567128793006251,3.0303030303030303 3.030303030303029 3.0303030303030303c 1.6735901510024045,3.074335232264445e-16 3.0303030303030303,-1.3567128793006251 3.0303030303030307 -3.0303030303030294Z" /></g></g></g><g fill="rgb(255,0,0)" fill-opacity="1.0" stroke-width="0.0"><g fill="rgb(255,0,0)" fill-opacity="1.0"><g fill="rgb(255,0,0)" fill-opacity="1.0"><path d="M 101.81818181818181,73.03030303030302 c 0.0,-1.6735901510024045 -1.3567128793006256,-3.0303030303030303 -3.0303030303030294 -3.0303030303030303c -1.6735901510024045,-1.024778410754815e-16 -3.0303030303030303,1.3567128793006253 -3.0303030303030303 3.0303030303030294c -2.04955682150963e-16,1.6735901510024045 1.3567128793006251,3.0303030303030303 3.030303030303029 3.0303030303030303c 1.6735901510024045,3.074335232264445e-16 3.0303030303030303,-1.3567128793006251 3.0303030303030307 -3.0303030303030294Z" /></g></g></g><g fill="rgb(255,0,0)" fill-opacity="1.0" stroke-width="0.0"><g fill="rgb(255,0,0)" fill-opacity="1.0"><g fill="rgb(255,0,0)" fill-opacity="1.0"><path d="M 65.45454545454545,133.63636363636363 c 0.0,-1.6735901510024045 -1.3567128793006256,-3.0303030303030303 -3.0303030303030294 -3.0303030303030303c -1.6735901510024045,-1.024778410754815e-16 -3.0303030303030303,1.3567128793006253 -3.0303030303030303 3.0303030303030294c -2.04955682150963e-16,1.6735901510024045 1.3567128793006251,3.0303030303030303 3.030303030303029 3.0303030303030303c 1.6735901510024045,3.074335232264445e-16 3.0303030303030303,-1.3567128793006251 3.0303030303030307 -3.0303030303030294Z" /></g></g></g><g fill="rgb(255,0,0)" fill-opacity="1.0" stroke-width="0.0"><g fill="rgb(255,0,0)" fill-opacity="1.0"><g fill="rgb(255,0,0)" fill-opacity="1.0"><path d="M 29.090909090909093,194.24242424242422 c 0.0,-1.6735901510024045 -1.3567128793006256,-3.0303030303030303 -3.0303030303030294 -3.0303030303030303c -1.6735901510024045,-1.024778410754815e-16 -3.0303030303030303,1.3567128793006253 -3.0303030303030303 3.0303030303030294c -2.04955682150963e-16,1.6735901510024045 1.3567128793006251,3.0303030303030303 3.030303030303029 3.0303030303030303c 1.6735901510024045,3.074335232264445e-16 3.0303030303030303,-1.3567128793006251 3.0303030303030307 -3.0303030303030294Z" /></g></g></g></g></g></g></g></svg>