<?xml version="1.0" encoding="UTF-8"?>
<!DOCTYPE svg PUBLIC "-//W3C//DTD SVG 1.1//EN"
    "http://www.w3.org/Graphics/SVG/1.1/DTD/svg11.dtd">
<svg xmlns="http://www.w3.org/2000/svg" xmlns:xlink="http://www.w3.org/1999/xlink" version="1.1" width="200.0" height="206.66666666666666" font-size="1" viewBox="0 0 200 207"><g><g stroke="rgb(0,0,0)" stroke-opacity="1.0" fill="rgb(0,0,0)" fill-opacity="0.0" stroke-width="1.0e-2" stroke-linecap="butt" stroke-linejoin="miter" font-size="1.0em" stroke-miterlimit="10.0"><g transform="matrix(60.6060606060606,0.0,0.0,60.6060606060606,100.0,103.33333333333333)"><g><path d="M -1.5,1.4999999999999998 h 3.0 v -3.0 h -2.0 v 1.0 h 1.0 v 1.0 h -2.0 v 1.0 " /><g fill-opacity="0.0" stroke-dasharray="0.1,0.1" stroke-dashoffset="0.0"><path d="M -0.5,0.2999999999999998 l -0.72,1.2 " /></g><g fill-opacity="0.0" stroke-dasharray="0.1,0.1" stroke-dashoffset="0.0"><path d="M -0.5,0.2999999999999998 l 1.08,-1.8 " /></g><g fill="rgb(0,0,255)" fill-opacity="1.0" stroke-width="0.0"><path d="M -0.45,0.2999999999999998 c 0.0,-2.7614237491539673e-2 -2.2385762508460322e-2,-5.0e-2 -4.999999999999999e-2 -5.0e-2c -2.7614237491539673e-2,-1.6908843777454448e-18 -5.0e-2,2.238576250846032e-2 -5.0e-2 4.999999999999999e-2c -3.3817687554908897e-18,2.7614237491539673e-2 2.238576250846032e-2,5.0e-2 4.999999999999998e-2 5.0e-2c 2.7614237491539673e-2,5.072653133236335e-18 5.0e-2,-2.2385762508460316e-2 5.000000000000001e-2 -4.999999999999999e-2Z" /></g><g stroke="rgb(0,0,255)" stroke-opacity="1.0" stroke-width="2.0e-2"><g><g fill-opacity="0.0"><path d="M -0.5,0.2999999999999998 l 0.2047253632038934,-0.34120893867315566 " /></g><g stroke-width="0.0"><g fill="rgb(0,0,255)" fill-opacity="1.0"><path d="" /></g><g fill="rgb(0,0,255)" fill-opacity="1.0"><path d="" /></g></g><g stroke-width="0.0"><g fill="rgb(0,0,255)" fill-opacity="1.0"><path d="M -0.20000000000000007,-0.20000000000000015 l -6.400648041348193e-2,0.2780448438866493 l -2.8602755563472804e-2,-0.12369611725839133 l -0.12260375314021485,3.297221203617881e-2 l 0.21521298911716957,-0.18732093866443678 Z" /></g><g fill="rgb(0,0,255)" fill-opacity="1.0"><path d="M -0.2926092359769548,-4.5651273371742185e-2 l 1.6220638094109206e-3,7.014813475723948e-3 l -8.574929257125425e-3,-5.1449575542752545e-3 l 6.952865447714505e-3,-1.8698559214486935e-3 h -0.0 Z" /></g></g></g></g><g fill="rgb(255,0,0)" fill-opacity="1.0" stroke-width="0.0"><path d="M 0.6300000000000001,-1.5000000000000002 c 0.0,-2.7614237491539673e-2 -2.2385762508460322e-2,-5.0e-2 -4.999999999999999e-2 -5.0e-2c -2.7614237491539673e-2,-1.6908843777454448e-18 -5.0e-2,2.238576250846032e-2 -5.0e-2 4.999999999999999e-2c -3.3817687554908897e-18,2.7614237491539673e-2 2.238576250846032e-2,5.0e-2 4.999999999999998e-2 5.0e-2c 2.7614237491539673e-2,5.072653133236335e-18 5.0e-2,-2.2385762508460316e-2 5.000000000000001e-2 -4.999999999999999e-2Z" /></g><g fill="rgb(255,0,0)" fill-opacity="1.0" stroke-width="0.0"><path d="M 2.9999999999999985e-2,-0.5000000000000002 c 0.0,-2.7614237491539673e-2 -2.2385762508460322e-2,-5.0e-2 -4.999999999999999e-2 -5.0e-2c -2.7614237491539673e-2,-1.6908843777454448e-18 -5.0e-2,2.238576250846032e-2 -5.0e-2 4.999999999999999e-2c -3.3817687554908897e-18,2.7614237491539673e-2 2.238576250846032e-2,5.0e-2 4.999999999999998e-2 5.0e-2c 2.7614237491539673e-2,5.072653133236335e-18 5.0e-2,-2.2385762508460316e-2 5.000000000000001e-2 -4.999999999999999e-2Z" /></g><g fill="rgb(255,0,0)" fill-opacity="1.0" stroke-width="0.0"><path d="M -0.57,0.4999999999999998 c 0.0,-2.7614237491539673e-2 -2.2385762508460322e-2,-5.0e-2 -4.999999999999999e-2 -5.0e-2c -2.7614237491539673e-2,-1.6908843777454448e-18 -5.0e-2,2.238576250846032e-2 -5.0e-2 4.999999999999999e-2c -3.3817687554908897e-18,2.7614237491539673e-2 2.238576250846032e-2,5.0e-2 4.999999999999998e-2 5.0e-2c 2.7614237491539673e-2,5.072653133236335e-18 5.0e-2,-2.2385762508460316e-2 5.000000000000001e-2 -4.999999999999999e-2Z" /></g><g fill="rgb(255,0,0)" fill-opacity="1.0" stroke-width="0.0"><path d="M -1.17,1.4999999999999998 c 0.0,-2.7614237491539673e-2 -2.2385762508460322e-2,-5.0e-2 -4.999999999999999e-2 -5.0e-2c -2.7614237491539673e-2,-1.6908843777454448e-18 -5.0e-2,2.238576250846032e-2 -5.0e-2 4.999999999999999e-2c -3.3817687554908897e-18,2.7614237491539673e-2 2.238576250846032e-2,5.0e-2 4.999999999999998e-2 5.0e-2c 2.7614237491539673e-2,5.072653133236335e-18 5.0e-2,-2.2385762508460316e-2 5.000000000000001e-2 -4.999999999999999e-2Z" /></g></g></g></g></g></svg>