<?xml version="1.0" encoding="UTF-8"?>
<!DOCTYPE svg PUBLIC "-//W3C//DTD SVG 1.1//EN"
    "http://www.w3.org/Graphics/SVG/1.1/DTD/svg11.dtd">
<svg xmlns="http://www.w3.org/2000/svg" xmlns:xlink="http://www.w3.org/1999/xlink" version="1.1" width="600.0" height="251.1919698870766" font-size="1" viewBox="0 0 600 251" stroke="rgb(0,0,0)" stroke-opacity="1"><g><g fill="rgb(0,0,0)" fill-opacity="0.0"><g stroke="rgb(0,0,0)" stroke-opacity="1.0" stroke-width="1.5528821304000942" stroke-linecap="butt" stroke-linejoin="miter" font-size="1.0em" stroke-miterlimit="10.0"><g><g><path d="M 441.9071518193225,225.97239648682563 h 150.564617314931 v -150.564617314931 h -100.37641154328733 v 50.188205771643666 h 50.188205771643666 v 50.188205771643666 h -100.37641154328733 v 50.188205771643666 " /><g stroke-dasharray="5.018820577164367,5.018820577164367" stroke-dashoffset="0.0"><path d="M 567.3776662484316,50.31367628607279 l -15.05646173149309,25.094102885821833 " /></g><g fill="rgb(0,0,255)" fill-opacity="1.0" stroke-width="0.0"><g fill="rgb(0,0,255)" fill-opacity="1.0"><g fill="rgb(0,0,255)" fill-opacity="1.0"><path d="M 569.8870765370139,50.31367628607279 c 0.0,-1.3859090334524304 -1.1235012551297527,-2.5094102885821834 -2.509410288582183 -2.5094102885821834c -1.3859090334524304,-8.486245308634604e-17 -2.5094102885821834,1.1235012551297525 -2.5094102885821834 2.5094102885821825c -1.6972490617269208e-16,1.3859090334524304 1.1235012551297525,2.5094102885821834 2.509410288582182 2.5094102885821834c 1.3859090334524304,2.5458735925903813e-16 2.5094102885821834,-1.1235012551297523 2.509410288582184 -2.5094102885821825Z" /></g></g></g><g stroke="rgb(0,0,255)" stroke-opacity="1.0"><g><g><path d="M 567.3776662484316,50.31367628607279 l 8.065638164754679,-13.442730274591154 " /></g><g stroke-width="0.0"><g fill="rgb(0,0,255)" fill-opacity="1.0"><g fill="rgb(0,0,255)" fill-opacity="1.0"><g fill="rgb(0,0,255)" fill-opacity="1.0"><path d="" /></g></g></g><g fill="rgb(0,0,255)" fill-opacity="1.0"><g fill="rgb(0,0,255)" fill-opacity="1.0"><g fill="rgb(0,0,255)" fill-opacity="1.0"><path d="" /></g></g></g></g><g stroke-width="0.0"><g fill="rgb(0,0,255)" fill-opacity="1.0"><g fill="rgb(0,0,255)" fill-opacity="1.0"><g fill="rgb(0,0,255)" fill-opacity="1.0"><path d="M 582.4341279799247,25.219573400250958 l -3.7905642133058457,16.466251981400138 l -3.0650161405918075,-5.04028472490403 l -5.889670588134995,-0.3325273123320436 Z" /></g></g></g><g fill="rgb(0,0,255)" fill-opacity="1.0"><g fill="rgb(0,0,255)" fill-opacity="1.0"><g fill="rgb(0,0,255)" fill-opacity="1.0"><path d="M 575.5785476260271,36.645540656747066 l -0.13524321284074345,0.22540535473457277 l 0.42874646285627227,0.25724787771376295 l -0.2935032500155288,-0.4826532324483357 l -0.13524321284074345,0.22540535473457277 l -0.42874646285627227,-0.25724787771376295 Z" /></g></g></g></g></g></g><g stroke="rgb(0,128,0)" stroke-opacity="1.0"><g><g><path d="M 567.3776662484316,50.31367628607279 l -8.06563816475467,13.44273027459115 " /></g><g stroke-width="0.0"><g fill="rgb(0,128,0)" fill-opacity="1.0"><g fill="rgb(0,128,0)" fill-opacity="1.0"><g fill="rgb(0,128,0)" fill-opacity="1.0"><path d="" /></g></g></g><g fill="rgb(0,128,0)" fill-opacity="1.0"><g fill="rgb(0,128,0)" fill-opacity="1.0"><g fill="rgb(0,128,0)" fill-opacity="1.0"><path d="" /></g></g></g></g><g stroke-width="0.0"><g fill="rgb(0,128,0)" fill-opacity="1.0"><g fill="rgb(0,128,0)" fill-opacity="1.0"><g fill="rgb(0,128,0)" fill-opacity="1.0"><path d="M 552.3212045169386,75.40777917189463 l 3.7905642133058386,-16.46625198140014 l 3.06501614059181,5.040284724904028 l 5.8896705881349956,0.33252731233204136 Z" /></g></g></g><g fill="rgb(0,128,0)" fill-opacity="1.0"><g fill="rgb(0,128,0)" fill-opacity="1.0"><g fill="rgb(0,128,0)" fill-opacity="1.0"><path d="M 559.1767848708362,63.98181191539852 l 0.13524321284074337,-0.22540535473457282 l -0.4287464628562724,-0.2572478777137628 l 0.293503250015529,0.4826532324483356 l 0.13524321284074337,-0.22540535473457282 l 0.4287464628562724,0.2572478777137628 Z" /></g></g></g></g></g></g><g fill="rgb(255,0,0)" fill-opacity="1.0" stroke-width="0.0"><g fill="rgb(255,0,0)" fill-opacity="1.0"><g fill="rgb(255,0,0)" fill-opacity="1.0"><path d="M 554.8306148055208,75.40777917189462 c 0.0,-1.3859090334524304 -1.1235012551297527,-2.5094102885821834 -2.509410288582183 -2.5094102885821834c -1.3859090334524304,-8.486245308634604e-17 -2.5094102885821834,1.1235012551297525 -2.5094102885821834 2.5094102885821825c -1.6972490617269208e-16,1.3859090334524304 1.1235012551297525,2.5094102885821834 2.509410288582182 2.5094102885821834c 1.3859090334524304,2.5458735925903813e-16 2.5094102885821834,-1.1235012551297523 2.509410288582184 -2.5094102885821825Z" /></g></g></g></g></g><g><g><path d="M 226.09786700125468,202.1329987452949 h 150.564617314931 v -150.564617314931 h -100.37641154328733 v 50.188205771643666 h 50.188205771643666 v 50.188205771643666 h -100.37641154328733 v 50.188205771643666 " /><g stroke-dasharray="5.018820577164367,5.018820577164367" stroke-dashoffset="0.0"><path d="M 276.28607277289836,141.9071518193225 l 54.20326223337516,-90.33877038895861 " /></g><g fill="rgb(0,0,255)" fill-opacity="1.0" stroke-width="0.0"><g fill="rgb(0,0,255)" fill-opacity="1.0"><g fill="rgb(0,0,255)" fill-opacity="1.0"><path d="M 278.7954830614805,141.9071518193225 c 0.0,-1.3859090334524304 -1.1235012551297527,-2.5094102885821834 -2.509410288582183 -2.5094102885821834c -1.3859090334524304,-8.486245308634604e-17 -2.5094102885821834,1.1235012551297525 -2.5094102885821834 2.5094102885821825c -1.6972490617269208e-16,1.3859090334524304 1.1235012551297525,2.5094102885821834 2.509410288582182 2.5094102885821834c 1.3859090334524304,2.5458735925903813e-16 2.5094102885821834,-1.1235012551297523 2.509410288582184 -2.5094102885821825Z" /></g></g></g><g stroke="rgb(0,0,255)" stroke-opacity="1.0"><g><g><path d="M 276.28607277289836,141.9071518193225 l 8.065638164754676,-13.442730274591147 " /></g><g stroke-width="0.0"><g fill="rgb(0,0,255)" fill-opacity="1.0"><g fill="rgb(0,0,255)" fill-opacity="1.0"><g fill="rgb(0,0,255)" fill-opacity="1.0"><path d="" /></g></g></g><g fill="rgb(0,0,255)" fill-opacity="1.0"><g fill="rgb(0,0,255)" fill-opacity="1.0"><g fill="rgb(0,0,255)" fill-opacity="1.0"><path d="" /></g></g></g></g><g stroke-width="0.0"><g fill="rgb(0,0,255)" fill-opacity="1.0"><g fill="rgb(0,0,255)" fill-opacity="1.0"><g fill="rgb(0,0,255)" fill-opacity="1.0"><path d="M 291.34253450439144,116.81304893350068 l -3.7905642133058457,16.466251981400138 l -3.0650161405918075,-5.04028472490403 l -5.889670588134995,-0.3325273123320436 Z" /></g></g></g><g fill="rgb(0,0,255)" fill-opacity="1.0"><g fill="rgb(0,0,255)" fill-opacity="1.0"><g fill="rgb(0,0,255)" fill-opacity="1.0"><path d="M 284.4869541504938,128.2390161899968 l -0.13524321284074345,0.22540535473457277 l 0.42874646285627227,0.25724787771376295 l -0.2935032500155288,-0.4826532324483357 l -0.13524321284074345,0.22540535473457277 l -0.42874646285627227,-0.25724787771376295 Z" /></g></g></g></g></g></g><g stroke="rgb(0,128,0)" stroke-opacity="1.0"><g><g><path d="M 276.28607277289836,141.9071518193225 l 47.21243866663673,-78.68739777772794 " /></g><g stroke-width="0.0"><g fill="rgb(0,128,0)" fill-opacity="1.0"><g fill="rgb(0,128,0)" fill-opacity="1.0"><g fill="rgb(0,128,0)" fill-opacity="1.0"><path d="" /></g></g></g><g fill="rgb(0,128,0)" fill-opacity="1.0"><g fill="rgb(0,128,0)" fill-opacity="1.0"><g fill="rgb(0,128,0)" fill-opacity="1.0"><path d="" /></g></g></g></g><g stroke-width="0.0"><g fill="rgb(0,128,0)" fill-opacity="1.0"><g fill="rgb(0,128,0)" fill-opacity="1.0"><g fill="rgb(0,128,0)" fill-opacity="1.0"><path d="M 330.4893350062735,51.568381430363885 l -3.790564213305852,16.466251981400134 l -3.0650161405918057,-5.04028472490403 l -5.889670588134995,-0.3325273123320458 Z" /></g></g></g><g fill="rgb(0,128,0)" fill-opacity="1.0"><g fill="rgb(0,128,0)" fill-opacity="1.0"><g fill="rgb(0,128,0)" fill-opacity="1.0"><path d="M 323.63375465237584,62.99434868685999 l -0.13524321284074353,0.2254053547345727 l 0.42874646285627216,0.2572478777137631 l -0.2935032500155286,-0.4826532324483358 l -0.13524321284074353,0.2254053547345727 l -0.42874646285627216,-0.2572478777137631 Z" /></g></g></g></g></g></g><g fill="rgb(255,0,0)" fill-opacity="1.0" stroke-width="0.0"><g fill="rgb(255,0,0)" fill-opacity="1.0"><g fill="rgb(255,0,0)" fill-opacity="1.0"><path d="M 332.99874529485567,51.5683814303639 c 0.0,-1.3859090334524304 -1.1235012551297527,-2.5094102885821834 -2.509410288582183 -2.5094102885821834c -1.3859090334524304,-8.486245308634604e-17 -2.5094102885821834,1.1235012551297525 -2.5094102885821834 2.5094102885821825c -1.6972490617269208e-16,1.3859090334524304 1.1235012551297525,2.5094102885821834 2.509410288582182 2.5094102885821834c 1.3859090334524304,2.5458735925903813e-16 2.5094102885821834,-1.1235012551297523 2.509410288582184 -2.5094102885821825Z" /></g></g></g></g></g><g><path d="M 7.653701380175647,161.98243412797996 h 150.564617314931 v -150.564617314931 h -100.37641154328733 v 50.188205771643666 h 50.188205771643666 v 50.188205771643666 h -100.37641154328733 v 50.188205771643666 " /><g stroke-dasharray="5.018820577164367,5.018820577164367" stroke-dashoffset="0.0"><path d="M 57.84190715181931,237.26474278544546 l 100.37641154328733,-167.29401923881224 " /></g><g fill="rgb(0,0,255)" fill-opacity="1.0" stroke-width="0.0"><g fill="rgb(0,0,255)" fill-opacity="1.0"><g fill="rgb(0,0,255)" fill-opacity="1.0"><path d="M 60.351317440401495,237.26474278544546 c 0.0,-1.3859090334524304 -1.1235012551297527,-2.5094102885821834 -2.509410288582183 -2.5094102885821834c -1.3859090334524304,-8.486245308634604e-17 -2.5094102885821834,1.1235012551297525 -2.5094102885821834 2.5094102885821825c -1.6972490617269208e-16,1.3859090334524304 1.1235012551297525,2.5094102885821834 2.509410288582182 2.5094102885821834c 1.3859090334524304,2.5458735925903813e-16 2.5094102885821834,-1.1235012551297523 2.509410288582184 -2.5094102885821825Z" /></g></g></g><g stroke="rgb(0,0,255)" stroke-opacity="1.0"><g><g><path d="M 57.84190715181931,237.26474278544546 l 8.065638164754697,-13.442730274591153 " /></g><g stroke-width="0.0"><g fill="rgb(0,0,255)" fill-opacity="1.0"><g fill="rgb(0,0,255)" fill-opacity="1.0"><g fill="rgb(0,0,255)" fill-opacity="1.0"><path d="" /></g></g></g><g fill="rgb(0,0,255)" fill-opacity="1.0"><g fill="rgb(0,0,255)" fill-opacity="1.0"><g fill="rgb(0,0,255)" fill-opacity="1.0"><path d="" /></g></g></g></g><g stroke-width="0.0"><g fill="rgb(0,0,255)" fill-opacity="1.0"><g fill="rgb(0,0,255)" fill-opacity="1.0"><g fill="rgb(0,0,255)" fill-opacity="1.0"><path d="M 72.89836888331241,212.17063989962364 l -3.7905642133058626,16.466251981400134 l -3.065016140591802,-5.040284724904033 l -5.889670588134995,-0.3325273123320498 Z" /></g></g></g><g fill="rgb(0,0,255)" fill-opacity="1.0"><g fill="rgb(0,0,255)" fill-opacity="1.0"><g fill="rgb(0,0,255)" fill-opacity="1.0"><path d="M 66.04278852941475,223.59660715611975 l -0.13524321284074367,0.22540535473457263 l 0.428746462856272,0.2572478777137634 l -0.29350325001552835,-0.482653232448336 l -0.13524321284074367,0.22540535473457263 l -0.428746462856272,-0.2572478777137634 Z" /></g></g></g></g></g></g><g stroke="rgb(0,128,0)" stroke-opacity="1.0"><g><g><path d="M 57.84190715181931,237.26474278544546 l 93.38558797654892,-155.64264662758154 " /></g><g stroke-width="0.0"><g fill="rgb(0,128,0)" fill-opacity="1.0"><g fill="rgb(0,128,0)" fill-opacity="1.0"><g fill="rgb(0,128,0)" fill-opacity="1.0"><path d="" /></g></g></g><g fill="rgb(0,128,0)" fill-opacity="1.0"><g fill="rgb(0,128,0)" fill-opacity="1.0"><g fill="rgb(0,128,0)" fill-opacity="1.0"><path d="" /></g></g></g></g><g stroke-width="0.0"><g fill="rgb(0,128,0)" fill-opacity="1.0"><g fill="rgb(0,128,0)" fill-opacity="1.0"><g fill="rgb(0,128,0)" fill-opacity="1.0"><path d="M 158.21831869510663,69.97072354663325 l -3.7905642133058564,16.466251981400134 l -3.065016140591804,-5.040284724904032 l -5.889670588134995,-0.3325273123320476 Z" /></g></g></g><g fill="rgb(0,128,0)" fill-opacity="1.0"><g fill="rgb(0,128,0)" fill-opacity="1.0"><g fill="rgb(0,128,0)" fill-opacity="1.0"><path d="M 151.36273834120897,81.39669080312936 l -0.1352432128407436,0.22540535473457268 l 0.4287464628562721,0.25724787771376323 l -0.2935032500155285,-0.4826532324483359 l -0.1352432128407436,0.22540535473457268 l -0.4287464628562721,-0.25724787771376323 Z" /></g></g></g></g></g></g><g fill="rgb(255,0,0)" fill-opacity="1.0" stroke-width="0.0"><g fill="rgb(255,0,0)" fill-opacity="1.0"><g fill="rgb(255,0,0)" fill-opacity="1.0"><path d="M 160.72772898368885,69.97072354663322 c 0.0,-1.3859090334524304 -1.1235012551297527,-2.5094102885821834 -2.509410288582183 -2.5094102885821834c -1.3859090334524304,-8.486245308634604e-17 -2.5094102885821834,1.1235012551297525 -2.5094102885821834 2.5094102885821825c -1.6972490617269208e-16,1.3859090334524304 1.1235012551297525,2.5094102885821834 2.509410288582182 2.5094102885821834c 1.3859090334524304,2.5458735925903813e-16 2.5094102885821834,-1.1235012551297523 2.509410288582184 -2.5094102885821825Z" /></g></g></g></g></g></g></g></svg>