<?xml version="1.0" encoding="UTF-8"?>
<!DOCTYPE svg PUBLIC "-//W3C//DTD SVG 1.1//EN"
    "http://www.w3.org/Graphics/SVG/1.1/DTD/svg11.dtd"><svg xmlns="http://www.w3.org/2000/svg" height="252.35294117647058" stroke-opacity="1" viewBox="0 0 600 252" font-size="1" width="600.0" xmlns:xlink="http://www.w3.org/1999/xlink" stroke="rgb(0,0,0)" version="1.1"><g><defs></defs><g stroke-linejoin="miter" stroke-opacity="1.0" fill-opacity="0.0" stroke="rgb(0,0,0)" stroke-width="1.5564665866295098" fill="rgb(0,0,0)" stroke-linecap="butt" stroke-miterlimit="10.0"><path d="M 441.1764705882354,227.01680672268907 h 151.26050420168067 v -151.26050420168067 h -100.84033613445378 v 50.42016806722689 h 50.42016806722689 v 50.42016806722689 h -100.84033613445378 v 50.42016806722689 "/></g><defs></defs><g stroke-linejoin="miter" stroke-opacity="1.0" fill-opacity="1.0" stroke="rgb(0,0,0)" stroke-width="0.0" fill="rgb(0,0,255)" stroke-linecap="butt" stroke-miterlimit="10.0"><path d="M 569.7478991596639,50.54621848739495 c 0.0,-1.3923144953717481 -1.1286939079895961,-2.5210084033613445 -2.521008403361344 -2.5210084033613445c -1.3923144953717481,-8.525467450817369e-17 -2.5210084033613445,1.128693907989596 -2.5210084033613445 2.521008403361344c -1.7050934901634737e-16,1.3923144953717481 1.128693907989596,2.5210084033613445 2.5210084033613436 2.5210084033613445c 1.3923144953717481,2.5576402352452107e-16 2.5210084033613445,-1.1286939079895957 2.5210084033613454 -2.521008403361344Z"/></g><defs></defs><g stroke-linejoin="miter" stroke-opacity="1.0" fill-opacity="0.0" stroke="rgb(0,0,255)" stroke-width="1.5564665866295098" fill="rgb(0,0,0)" stroke-linecap="butt" stroke-miterlimit="10.0"><path d="M 567.2268907563025,50.54621848739495 l 8.119090212668617,-13.531817021114332 "/></g><defs></defs><g stroke-linejoin="miter" stroke-opacity="1.0" fill-opacity="1.0" stroke="rgb(0,0,255)" stroke-width="0.0" fill="rgb(0,0,255)" stroke-linecap="butt" stroke-miterlimit="10.0"></g><defs></defs><g stroke-linejoin="miter" stroke-opacity="1.0" fill-opacity="1.0" stroke="rgb(0,0,255)" stroke-width="0.0" fill="rgb(0,0,255)" stroke-linecap="butt" stroke-miterlimit="10.0"></g><defs></defs><g stroke-linejoin="miter" stroke-opacity="1.0" fill-opacity="1.0" stroke="rgb(0,0,255)" stroke-width="0.0" fill="rgb(0,0,255)" stroke-linecap="butt" stroke-miterlimit="10.0"><path d="M 582.3529411764706,25.33613445378151 l -12.635337453457526,10.997771472032147 l 5.838878787813089,0.329659637375227 l 3.038583815478409,4.996817924599683 Z"/></g><defs></defs><g stroke-linejoin="miter" stroke-opacity="1.0" fill-opacity="1.0" stroke="rgb(0,0,255)" stroke-width="0.0" fill="rgb(0,0,255)" stroke-linecap="butt" stroke-miterlimit="10.0"><path d="M 575.5564825108262,36.66356556318889 l -0.21050154185504058,0.35083590309173357 l -0.6673295435713774,-0.40039772614282726 l 0.877831085426418,4.956182305109369e-2 l -0.21050154185504058,0.35083590309173357 l 0.6673295435713774,0.40039772614282726 Z"/></g><defs></defs><g stroke-linejoin="miter" stroke-opacity="1.0" fill-opacity="0.0" stroke="rgb(0,0,0)" stroke-width="1.5564665866295098" fill="rgb(0,0,0)" stroke-linecap="butt" stroke-miterlimit="10.0"><path d="M 224.36974789915968,201.80672268907563 h 151.26050420168067 v -151.26050420168067 h -100.84033613445378 v 50.42016806722689 h 50.42016806722689 v 50.42016806722689 h -100.84033613445378 v 50.42016806722689 "/></g><defs></defs><g stroke-linejoin="miter" stroke-opacity="1.0" fill-opacity="0.0" stroke="rgb(0,0,0)" stroke-width="1.5564665866295098" fill="rgb(0,0,0)" stroke-dashoffset="0.0" stroke-linecap="butt" stroke-miterlimit="10.0" stroke-dasharray="5.042016806722689,5.042016806722689"><path d="M 274.78991596638656,141.30252100840335 l 24.201680672268907,-40.33613445378151 "/></g><defs></defs><g stroke-linejoin="miter" stroke-opacity="1.0" fill-opacity="1.0" stroke="rgb(0,0,0)" stroke-width="0.0" fill="rgb(0,0,255)" stroke-linecap="butt" stroke-miterlimit="10.0"><path d="M 277.3109243697479,141.30252100840335 c 0.0,-1.3923144953717481 -1.1286939079895961,-2.5210084033613445 -2.521008403361344 -2.5210084033613445c -1.3923144953717481,-8.525467450817369e-17 -2.5210084033613445,1.128693907989596 -2.5210084033613445 2.521008403361344c -1.7050934901634737e-16,1.3923144953717481 1.128693907989596,2.5210084033613445 2.5210084033613436 2.5210084033613445c 1.3923144953717481,2.5576402352452107e-16 2.5210084033613445,-1.1286939079895957 2.5210084033613454 -2.521008403361344Z"/></g><defs></defs><g stroke-linejoin="miter" stroke-opacity="1.0" fill-opacity="0.0" stroke="rgb(0,0,255)" stroke-width="1.5564665866295098" fill="rgb(0,0,0)" stroke-linecap="butt" stroke-miterlimit="10.0"><path d="M 274.78991596638656,141.30252100840335 l 8.11909021266858,-13.531817021114318 "/></g><defs></defs><g stroke-linejoin="miter" stroke-opacity="1.0" fill-opacity="1.0" stroke="rgb(0,0,255)" stroke-width="0.0" fill="rgb(0,0,255)" stroke-linecap="butt" stroke-miterlimit="10.0"></g><defs></defs><g stroke-linejoin="miter" stroke-opacity="1.0" fill-opacity="1.0" stroke="rgb(0,0,255)" stroke-width="0.0" fill="rgb(0,0,255)" stroke-linecap="butt" stroke-miterlimit="10.0"></g><defs></defs><g stroke-linejoin="miter" stroke-opacity="1.0" fill-opacity="1.0" stroke="rgb(0,0,255)" stroke-width="0.0" fill="rgb(0,0,255)" stroke-linecap="butt" stroke-miterlimit="10.0"><path d="M 289.9159663865546,116.0924369747899 l -12.63533745345751,10.997771472032166 l 5.838878787813089,0.329659637375218 l 3.0385838154784164,4.996817924599679 Z"/></g><defs></defs><g stroke-linejoin="miter" stroke-opacity="1.0" fill-opacity="1.0" stroke="rgb(0,0,255)" stroke-width="0.0" fill="rgb(0,0,255)" stroke-linecap="butt" stroke-miterlimit="10.0"><path d="M 283.1195077209102,127.41986808419729 l -0.21050154185504005,0.3508359030917339 l -0.667329543571378,-0.4003977261428262 l 0.877831085426418,4.956182305109233e-2 l -0.21050154185504005,0.3508359030917339 l 0.667329543571378,0.4003977261428262 Z"/></g><defs></defs><g stroke-linejoin="miter" stroke-opacity="1.0" fill-opacity="1.0" stroke="rgb(0,0,0)" stroke-width="0.0" fill="rgb(255,0,0)" stroke-linecap="butt" stroke-miterlimit="10.0"><path d="M 301.5126050420168,100.96638655462185 c 0.0,-1.3923144953717481 -1.1286939079895961,-2.5210084033613445 -2.521008403361344 -2.5210084033613445c -1.3923144953717481,-8.525467450817369e-17 -2.5210084033613445,1.128693907989596 -2.5210084033613445 2.521008403361344c -1.7050934901634737e-16,1.3923144953717481 1.128693907989596,2.5210084033613445 2.5210084033613436 2.5210084033613445c 1.3923144953717481,2.5576402352452107e-16 2.5210084033613445,-1.1286939079895957 2.5210084033613454 -2.521008403361344Z"/></g><defs></defs><g stroke-linejoin="miter" stroke-opacity="1.0" fill-opacity="0.0" stroke="rgb(0,0,0)" stroke-width="1.5564665866295098" fill="rgb(0,0,0)" stroke-linecap="butt" stroke-miterlimit="10.0"><path d="M 7.563025210084035,162.7310924369748 h 151.26050420168067 v -151.26050420168067 h -100.84033613445378 v 50.42016806722689 h 50.42016806722689 v 50.42016806722689 h -100.84033613445378 v 50.42016806722689 "/></g><defs></defs><g stroke-linejoin="miter" stroke-opacity="1.0" fill-opacity="0.0" stroke="rgb(0,0,0)" stroke-width="1.5564665866295098" fill="rgb(0,0,0)" stroke-dashoffset="0.0" stroke-linecap="butt" stroke-miterlimit="10.0" stroke-dasharray="5.042016806722689,5.042016806722689"><path d="M 57.983193277310924,238.3613445378151 l 45.3781512605042,-75.63025210084034 "/></g><defs></defs><g stroke-linejoin="miter" stroke-opacity="1.0" fill-opacity="1.0" stroke="rgb(0,0,0)" stroke-width="0.0" fill="rgb(0,0,255)" stroke-linecap="butt" stroke-miterlimit="10.0"><path d="M 60.50420168067227,238.3613445378151 c 0.0,-1.3923144953717481 -1.1286939079895961,-2.5210084033613445 -2.521008403361344 -2.5210084033613445c -1.3923144953717481,-8.525467450817369e-17 -2.5210084033613445,1.128693907989596 -2.5210084033613445 2.521008403361344c -1.7050934901634737e-16,1.3923144953717481 1.128693907989596,2.5210084033613445 2.5210084033613436 2.5210084033613445c 1.3923144953717481,2.5576402352452107e-16 2.5210084033613445,-1.1286939079895957 2.5210084033613454 -2.521008403361344Z"/></g><defs></defs><g stroke-linejoin="miter" stroke-opacity="1.0" fill-opacity="0.0" stroke="rgb(0,0,255)" stroke-width="1.5564665866295098" fill="rgb(0,0,0)" stroke-linecap="butt" stroke-miterlimit="10.0"><path d="M 57.983193277310924,238.3613445378151 l 8.119090212668596,-13.531817021114325 "/></g><defs></defs><g stroke-linejoin="miter" stroke-opacity="1.0" fill-opacity="1.0" stroke="rgb(0,0,255)" stroke-width="0.0" fill="rgb(0,0,255)" stroke-linecap="butt" stroke-miterlimit="10.0"></g><defs></defs><g stroke-linejoin="miter" stroke-opacity="1.0" fill-opacity="1.0" stroke="rgb(0,0,255)" stroke-width="0.0" fill="rgb(0,0,255)" stroke-linecap="butt" stroke-miterlimit="10.0"></g><defs></defs><g stroke-linejoin="miter" stroke-opacity="1.0" fill-opacity="1.0" stroke="rgb(0,0,255)" stroke-width="0.0" fill="rgb(0,0,255)" stroke-linecap="butt" stroke-miterlimit="10.0"><path d="M 73.10924369747899,213.15126050420167 l -12.635337453457517,10.997771472032158 l 5.838878787813089,0.32965963737522186 l 3.0385838154784133,4.99681792459968 Z"/></g><defs></defs><g stroke-linejoin="miter" stroke-opacity="1.0" fill-opacity="1.0" stroke="rgb(0,0,255)" stroke-width="0.0" fill="rgb(0,0,255)" stroke-linecap="butt" stroke-miterlimit="10.0"><path d="M 66.31278503183457,224.47869161360904 l -0.21050154185504028,0.35083590309173374 l -0.6673295435713777,-0.40039772614282665 l 0.877831085426418,4.956182305109291e-2 l -0.21050154185504028,0.35083590309173374 l 0.6673295435713777,0.40039772614282665 Z"/></g><defs></defs><g stroke-linejoin="miter" stroke-opacity="1.0" fill-opacity="1.0" stroke="rgb(0,0,0)" stroke-width="0.0" fill="rgb(255,0,0)" stroke-linecap="butt" stroke-miterlimit="10.0"><path d="M 105.88235294117646,162.7310924369748 c 0.0,-1.3923144953717481 -1.1286939079895961,-2.5210084033613445 -2.521008403361344 -2.5210084033613445c -1.3923144953717481,-8.525467450817369e-17 -2.5210084033613445,1.128693907989596 -2.5210084033613445 2.521008403361344c -1.7050934901634737e-16,1.3923144953717481 1.128693907989596,2.5210084033613445 2.5210084033613436 2.5210084033613445c 1.3923144953717481,2.5576402352452107e-16 2.5210084033613445,-1.1286939079895957 2.5210084033613454 -2.521008403361344Z"/></g></g></svg>