<?xml version="1.0" encoding="UTF-8"?>
<!DOCTYPE svg PUBLIC "-//W3C//DTD SVG 1.1//EN"
    "http://www.w3.org/Graphics/SVG/1.1/DTD/svg11.dtd">
<svg xmlns="http://www.w3.org/2000/svg" xmlns:xlink="http://www.w3.org/1999/xlink" version="1.1" width="600.0" height="252.3529411764706" font-size="1" viewBox="0 0 600 252"><g><g stroke="rgb(0,0,0)" stroke-opacity="1.0" fill="rgb(0,0,0)" fill-opacity="0.0" stroke-width="1.0e-2" stroke-linecap="butt" stroke-linejoin="miter" font-size="1.0em" stroke-miterlimit="10.0"><g transform="matrix(50.42016806722689,0.0,0.0,50.42016806722689,83.19327731092437,126.17647058823532)"><g><g><path d="M 7.100000000000001,1.8956044693365777 h 3.0 v -3.0 h -2.0 v 1.0 h 1.0 v 1.0 h -2.0 v 1.0 " /><g fill-opacity="0.0" stroke-dasharray="0.1,0.1" stroke-dashoffset="0.0"><path d="M 9.600000000000001,-1.6043955306634223 l -2.1,3.5 " /></g><g fill="rgb(0,0,255)" fill-opacity="1.0" stroke-width="0.0"><path d="M 9.650000000000002,-1.6043955306634223 c 0.0,-2.7614237491539673e-2 -2.2385762508460322e-2,-5.0e-2 -4.999999999999999e-2 -5.0e-2c -2.7614237491539673e-2,-1.6908843777454448e-18 -5.0e-2,2.238576250846032e-2 -5.0e-2 4.999999999999999e-2c -3.3817687554908897e-18,2.7614237491539673e-2 2.238576250846032e-2,5.0e-2 4.999999999999998e-2 5.0e-2c 2.7614237491539673e-2,5.072653133236335e-18 5.0e-2,-2.2385762508460316e-2 5.000000000000001e-2 -4.999999999999999e-2Z" /></g><g stroke="rgb(0,0,255)" stroke-opacity="1.0" stroke-width="2.0e-2"><g><g fill-opacity="0.0"><path d="M 9.600000000000001,-1.6043955306634223 l 0.20472536320389406,-0.3412089386731558 " /></g><g stroke-width="0.0"><g fill="rgb(0,0,255)" fill-opacity="1.0"><path d="" /></g><g fill="rgb(0,0,255)" fill-opacity="1.0"><path d="" /></g></g><g stroke-width="0.0"><g fill="rgb(0,0,255)" fill-opacity="1.0"><path d="M 9.900000000000002,-2.1043955306634223 l -6.400648041348227e-2,0.27804484388664924 l -2.8602755563472658e-2,-0.12369611725839136 l -0.12260375314021488,3.297221203617867e-2 l 0.2152129891171698,-0.18732093866443655 Z" /></g><g fill="rgb(0,0,255)" fill-opacity="1.0"><path d="M 9.807390764023047,-1.9500468040351646 l 1.6220638094109128e-3,7.01481347572395e-3 l -8.57492925712542e-3,-5.144957554275265e-3 l 6.952865447714507e-3,-1.8698559214486848e-3 h -0.0 Z" /></g></g></g></g><g fill="rgb(255,0,0)" fill-opacity="1.0" stroke-width="0.0"><path d="M 7.550000000000002,1.8956044693365777 c 0.0,-2.7614237491539673e-2 -2.2385762508460322e-2,-5.0e-2 -4.999999999999999e-2 -5.0e-2c -2.7614237491539673e-2,-1.6908843777454448e-18 -5.0e-2,2.238576250846032e-2 -5.0e-2 4.999999999999999e-2c -3.3817687554908897e-18,2.7614237491539673e-2 2.238576250846032e-2,5.0e-2 4.999999999999998e-2 5.0e-2c 2.7614237491539673e-2,5.072653133236335e-18 5.0e-2,-2.2385762508460316e-2 5.000000000000001e-2 -4.999999999999999e-2Z" /></g></g></g><g><g><path d="M 2.8000000000000007,1.4749999999999999 h 3.0 v -3.0 h -2.0 v 1.0 h 1.0 v 1.0 h -2.0 v 1.0 " /><g fill-opacity="0.0" stroke-dasharray="0.1,0.1" stroke-dashoffset="0.0"><path d="M 3.8000000000000007,0.2749999999999999 l -0.72,1.2 " /></g><g fill="rgb(0,0,255)" fill-opacity="1.0" stroke-width="0.0"><path d="M 3.8500000000000005,0.2749999999999999 c 0.0,-2.7614237491539673e-2 -2.2385762508460322e-2,-5.0e-2 -4.999999999999999e-2 -5.0e-2c -2.7614237491539673e-2,-1.6908843777454448e-18 -5.0e-2,2.238576250846032e-2 -5.0e-2 4.999999999999999e-2c -3.3817687554908897e-18,2.7614237491539673e-2 2.238576250846032e-2,5.0e-2 4.999999999999998e-2 5.0e-2c 2.7614237491539673e-2,5.072653133236335e-18 5.0e-2,-2.2385762508460316e-2 5.000000000000001e-2 -4.999999999999999e-2Z" /></g><g stroke="rgb(0,0,255)" stroke-opacity="1.0" stroke-width="2.0e-2"><g><g fill-opacity="0.0"><path d="M 3.8000000000000007,0.2749999999999999 l 0.20472536320389326,-0.3412089386731556 " /></g><g stroke-width="0.0"><g fill="rgb(0,0,255)" fill-opacity="1.0"><path d="" /></g><g fill="rgb(0,0,255)" fill-opacity="1.0"><path d="" /></g></g><g stroke-width="0.0"><g fill="rgb(0,0,255)" fill-opacity="1.0"><path d="M 4.1000000000000005,-0.225 l -6.400648041348188e-2,0.2780448438866493 l -2.8602755563472824e-2,-0.12369611725839133 l -0.12260375314021484,3.297221203617883e-2 l 0.21521298911716952,-0.1873209386644368 Z" /></g><g fill="rgb(0,0,255)" fill-opacity="1.0"><path d="M 4.007390764023046,-7.065127337174204e-2 l 1.6220638094109228e-3,7.014813475723947e-3 l -8.574929257125427e-3,-5.144957554275253e-3 l 6.952865447714504e-3,-1.8698559214486944e-3 h -0.0 Z" /></g></g></g></g><g fill="rgb(255,0,0)" fill-opacity="1.0" stroke-width="0.0"><path d="M 3.130000000000001,1.4749999999999999 c 0.0,-2.7614237491539673e-2 -2.2385762508460322e-2,-5.0e-2 -4.999999999999999e-2 -5.0e-2c -2.7614237491539673e-2,-1.6908843777454448e-18 -5.0e-2,2.238576250846032e-2 -5.0e-2 4.999999999999999e-2c -3.3817687554908897e-18,2.7614237491539673e-2 2.238576250846032e-2,5.0e-2 4.999999999999998e-2 5.0e-2c 2.7614237491539673e-2,5.072653133236335e-18 5.0e-2,-2.2385762508460316e-2 5.000000000000001e-2 -4.999999999999999e-2Z" /></g></g></g><g><path d="M -1.5,0.7249999999999999 h 3.0 v -3.0 h -2.0 v 1.0 h 1.0 v 1.0 h -2.0 v 1.0 " /><g fill-opacity="0.0" stroke-dasharray="0.1,0.1" stroke-dashoffset="0.0"><path d="M -0.5,2.2249999999999996 l 0.8999999999999999,-1.5 " /></g><g fill="rgb(0,0,255)" fill-opacity="1.0" stroke-width="0.0"><path d="M -0.45,2.2249999999999996 c 0.0,-2.7614237491539673e-2 -2.2385762508460322e-2,-5.0e-2 -4.999999999999999e-2 -5.0e-2c -2.7614237491539673e-2,-1.6908843777454448e-18 -5.0e-2,2.238576250846032e-2 -5.0e-2 4.999999999999999e-2c -3.3817687554908897e-18,2.7614237491539673e-2 2.238576250846032e-2,5.0e-2 4.999999999999998e-2 5.0e-2c 2.7614237491539673e-2,5.072653133236335e-18 5.0e-2,-2.2385762508460316e-2 5.000000000000001e-2 -4.999999999999999e-2Z" /></g><g stroke="rgb(0,0,255)" stroke-opacity="1.0" stroke-width="2.0e-2"><g><g fill-opacity="0.0"><path d="M -0.5,2.2249999999999996 l 0.2047253632038934,-0.34120893867315566 " /></g><g stroke-width="0.0"><g fill="rgb(0,0,255)" fill-opacity="1.0"><path d="" /></g><g fill="rgb(0,0,255)" fill-opacity="1.0"><path d="" /></g></g><g stroke-width="0.0"><g fill="rgb(0,0,255)" fill-opacity="1.0"><path d="M -0.20000000000000007,1.7249999999999996 l -6.400648041348193e-2,0.2780448438866493 l -2.8602755563472804e-2,-0.12369611725839133 l -0.12260375314021485,3.297221203617881e-2 l 0.21521298911716957,-0.18732093866443678 Z" /></g><g fill="rgb(0,0,255)" fill-opacity="1.0"><path d="M -0.2926092359769548,1.8793487266282576 l 1.6220638094109206e-3,7.014813475723948e-3 l -8.574929257125425e-3,-5.1449575542752545e-3 l 6.952865447714505e-3,-1.8698559214486935e-3 h -0.0 Z" /></g></g></g></g><g fill="rgb(255,0,0)" fill-opacity="1.0" stroke-width="0.0"><path d="M 0.4499999999999999,0.7249999999999999 c 0.0,-2.7614237491539673e-2 -2.2385762508460322e-2,-5.0e-2 -4.999999999999999e-2 -5.0e-2c -2.7614237491539673e-2,-1.6908843777454448e-18 -5.0e-2,2.238576250846032e-2 -5.0e-2 4.999999999999999e-2c -3.3817687554908897e-18,2.7614237491539673e-2 2.238576250846032e-2,5.0e-2 4.999999999999998e-2 5.0e-2c 2.7614237491539673e-2,5.072653133236335e-18 5.0e-2,-2.2385762508460316e-2 5.000000000000001e-2 -4.999999999999999e-2Z" /></g></g></g></g></g></svg>