<svg xmlns="http://www.w3.org/2000/svg" height="251.1920" stroke-opacity="1" viewBox="0 0 600 251" font-size="1" width="600.0000" xmlns:xlink="http://www.w3.org/1999/xlink" stroke="rgb(0,0,0)" version="1.1"><defs></defs><g stroke-linejoin="miter" stroke-opacity="1.0" fill-opacity="0.0" stroke="rgb(0,0,0)" stroke-width="1.5528821304000942" fill="rgb(0,0,0)" stroke-linecap="butt" stroke-miterlimit="10.0"><path d="M 441.9072,225.9724 h 150.5646 v -150.5646 h -100.3764 v 50.1882 h 50.1882 v 50.1882 h -100.3764 v 50.1882 "/></g><g stroke-linejoin="miter" stroke-opacity="1.0" fill-opacity="1.0" stroke="rgb(0,0,0)" stroke-width="0.0" fill="rgb(0,0,255)" stroke-linecap="butt" stroke-miterlimit="10.0"><path d="M 569.8871,50.3137 c 0.0000,-1.3859 -1.1235,-2.5094 -2.5094 -2.5094c -1.3859,-0.0000 -2.5094,1.1235 -2.5094 2.5094c -0.0000,1.3859 1.1235,2.5094 2.5094 2.5094c 1.3859,0.0000 2.5094,-1.1235 2.5094 -2.5094Z"/></g><g stroke-linejoin="miter" stroke-opacity="1.0" fill-opacity="0.0" stroke="rgb(0,0,255)" stroke-width="1.5528821304000942" fill="rgb(0,0,0)" stroke-linecap="butt" stroke-miterlimit="10.0"><path d="M 567.3777,50.3137 l 8.0656,-13.4427 "/></g><g stroke-linejoin="miter" stroke-opacity="1.0" fill-opacity="1.0" stroke="rgb(0,0,255)" stroke-width="0.0" fill="rgb(0,0,255)" stroke-linecap="butt" stroke-miterlimit="10.0"></g><g stroke-linejoin="miter" stroke-opacity="1.0" fill-opacity="1.0" stroke="rgb(0,0,255)" stroke-width="0.0" fill="rgb(0,0,255)" stroke-linecap="butt" stroke-miterlimit="10.0"></g><g stroke-linejoin="miter" stroke-opacity="1.0" fill-opacity="1.0" stroke="rgb(0,0,255)" stroke-width="0.0" fill="rgb(0,0,255)" stroke-linecap="butt" stroke-miterlimit="10.0"><path d="M 582.4341,25.2196 l -12.6062,10.9724 l 5.8254,0.3289 l 3.0316,4.9853 Z"/></g><g stroke-linejoin="miter" stroke-opacity="1.0" fill-opacity="1.0" stroke="rgb(0,0,255)" stroke-width="0.0" fill="rgb(0,0,255)" stroke-linecap="butt" stroke-miterlimit="10.0"><path d="M 575.6533,36.5209 l -0.2100,0.3500 l -0.6658,-0.3995 l 0.8758,0.0494 l -0.2100,0.3500 l 0.6658,0.3995 Z"/></g><g stroke-linejoin="miter" stroke-opacity="1.0" fill-opacity="0.0" stroke="rgb(0,0,0)" stroke-width="1.5528821304000942" fill="rgb(0,0,0)" stroke-linecap="butt" stroke-miterlimit="10.0"><path d="M 226.0979,202.1330 h 150.5646 v -150.5646 h -100.3764 v 50.1882 h 50.1882 v 50.1882 h -100.3764 v 50.1882 "/></g><g stroke-linejoin="miter" stroke-opacity="1.0" fill-opacity="0.0" stroke="rgb(0,0,0)" stroke-width="1.5528821304000942" fill="rgb(0,0,0)" stroke-dashoffset="0.0" stroke-linecap="butt" stroke-miterlimit="10.0" stroke-dasharray="5.018820577164367,5.018820577164367"><path d="M 276.2861,141.9072 l 54.2033,-90.3388 "/></g><g stroke-linejoin="miter" stroke-opacity="1.0" fill-opacity="1.0" stroke="rgb(0,0,0)" stroke-width="0.0" fill="rgb(0,0,255)" stroke-linecap="butt" stroke-miterlimit="10.0"><path d="M 278.7955,141.9072 c 0.0000,-1.3859 -1.1235,-2.5094 -2.5094 -2.5094c -1.3859,-0.0000 -2.5094,1.1235 -2.5094 2.5094c -0.0000,1.3859 1.1235,2.5094 2.5094 2.5094c 1.3859,0.0000 2.5094,-1.1235 2.5094 -2.5094Z"/></g><g stroke-linejoin="miter" stroke-opacity="1.0" fill-opacity="0.0" stroke="rgb(0,0,255)" stroke-width="1.5528821304000942" fill="rgb(0,0,0)" stroke-linecap="butt" stroke-miterlimit="10.0"><path d="M 276.2861,141.9072 l 8.0656,-13.4427 "/></g><g stroke-linejoin="miter" stroke-opacity="1.0" fill-opacity="1.0" stroke="rgb(0,0,255)" stroke-width="0.0" fill="rgb(0,0,255)" stroke-linecap="butt" stroke-miterlimit="10.0"></g><g stroke-linejoin="miter" stroke-opacity="1.0" fill-opacity="1.0" stroke="rgb(0,0,255)" stroke-width="0.0" fill="rgb(0,0,255)" stroke-linecap="butt" stroke-miterlimit="10.0"></g><g stroke-linejoin="miter" stroke-opacity="1.0" fill-opacity="1.0" stroke="rgb(0,0,255)" stroke-width="0.0" fill="rgb(0,0,255)" stroke-linecap="butt" stroke-miterlimit="10.0"><path d="M 291.3425,116.8130 l -12.6062,10.9724 l 5.8254,0.3289 l 3.0316,4.9853 Z"/></g><g stroke-linejoin="miter" stroke-opacity="1.0" fill-opacity="1.0" stroke="rgb(0,0,255)" stroke-width="0.0" fill="rgb(0,0,255)" stroke-linecap="butt" stroke-miterlimit="10.0"><path d="M 284.5617,128.1144 l -0.2100,0.3500 l -0.6658,-0.3995 l 0.8758,0.0494 l -0.2100,0.3500 l 0.6658,0.3995 Z"/></g><g stroke-linejoin="miter" stroke-opacity="1.0" fill-opacity="1.0" stroke="rgb(0,0,0)" stroke-width="0.0" fill="rgb(255,0,0)" stroke-linecap="butt" stroke-miterlimit="10.0"><path d="M 332.9987,51.5684 c 0.0000,-1.3859 -1.1235,-2.5094 -2.5094 -2.5094c -1.3859,-0.0000 -2.5094,1.1235 -2.5094 2.5094c -0.0000,1.3859 1.1235,2.5094 2.5094 2.5094c 1.3859,0.0000 2.5094,-1.1235 2.5094 -2.5094Z"/></g><g stroke-linejoin="miter" stroke-opacity="1.0" fill-opacity="0.0" stroke="rgb(0,0,0)" stroke-width="1.5528821304000942" fill="rgb(0,0,0)" stroke-linecap="butt" stroke-miterlimit="10.0"><path d="M 7.6537,161.9824 h 150.5646 v -150.5646 h -100.3764 v 50.1882 h 50.1882 v 50.1882 h -100.3764 v 50.1882 "/></g><g stroke-linejoin="miter" stroke-opacity="1.0" fill-opacity="0.0" stroke="rgb(0,0,0)" stroke-width="1.5528821304000942" fill="rgb(0,0,0)" stroke-dashoffset="0.0" stroke-linecap="butt" stroke-miterlimit="10.0" stroke-dasharray="5.018820577164367,5.018820577164367"><path d="M 57.8419,237.2647 l 100.3764,-167.2940 "/></g><g stroke-linejoin="miter" stroke-opacity="1.0" fill-opacity="1.0" stroke="rgb(0,0,0)" stroke-width="0.0" fill="rgb(0,0,255)" stroke-linecap="butt" stroke-miterlimit="10.0"><path d="M 60.3513,237.2647 c 0.0000,-1.3859 -1.1235,-2.5094 -2.5094 -2.5094c -1.3859,-0.0000 -2.5094,1.1235 -2.5094 2.5094c -0.0000,1.3859 1.1235,2.5094 2.5094 2.5094c 1.3859,0.0000 2.5094,-1.1235 2.5094 -2.5094Z"/></g><g stroke-linejoin="miter" stroke-opacity="1.0" fill-opacity="0.0" stroke="rgb(0,0,255)" stroke-width="1.5528821304000942" fill="rgb(0,0,0)" stroke-linecap="butt" stroke-miterlimit="10.0"><path d="M 57.8419,237.2647 l 8.0656,-13.4427 "/></g><g stroke-linejoin="miter" stroke-opacity="1.0" fill-opacity="1.0" stroke="rgb(0,0,255)" stroke-width="0.0" fill="rgb(0,0,255)" stroke-linecap="butt" stroke-miterlimit="10.0"></g><g stroke-linejoin="miter" stroke-opacity="1.0" fill-opacity="1.0" stroke="rgb(0,0,255)" stroke-width="0.0" fill="rgb(0,0,255)" stroke-linecap="butt" stroke-miterlimit="10.0"></g><g stroke-linejoin="miter" stroke-opacity="1.0" fill-opacity="1.0" stroke="rgb(0,0,255)" stroke-width="0.0" fill="rgb(0,0,255)" stroke-linecap="butt" stroke-miterlimit="10.0"><path d="M 72.8984,212.1706 l -12.6062,10.9724 l 5.8254,0.3289 l 3.0316,4.9853 Z"/></g><g stroke-linejoin="miter" stroke-opacity="1.0" fill-opacity="1.0" stroke="rgb(0,0,255)" stroke-width="0.0" fill="rgb(0,0,255)" stroke-linecap="butt" stroke-miterlimit="10.0"><path d="M 66.1176,223.4720 l -0.2100,0.3500 l -0.6658,-0.3995 l 0.8758,0.0494 l -0.2100,0.3500 l 0.6658,0.3995 Z"/></g><g stroke-linejoin="miter" stroke-opacity="1.0" fill-opacity="1.0" stroke="rgb(0,0,0)" stroke-width="0.0" fill="rgb(255,0,0)" stroke-linecap="butt" stroke-miterlimit="10.0"><path d="M 160.7277,69.9707 c 0.0000,-1.3859 -1.1235,-2.5094 -2.5094 -2.5094c -1.3859,-0.0000 -2.5094,1.1235 -2.5094 2.5094c -0.0000,1.3859 1.1235,2.5094 2.5094 2.5094c 1.3859,0.0000 2.5094,-1.1235 2.5094 -2.5094Z"/></g></svg>