<?xml version="1.0" encoding="UTF-8"?>
<!DOCTYPE svg PUBLIC "-//W3C//DTD SVG 1.1//EN"
    "http://www.w3.org/Graphics/SVG/1.1/DTD/svg11.dtd"><svg xmlns="http://www.w3.org/2000/svg" height="251.19196988707654" stroke-opacity="1" viewBox="0 0 600 251" font-size="1" width="600.0" xmlns:xlink="http://www.w3.org/1999/xlink" stroke="rgb(0,0,0)" version="1.1"><g><defs></defs><g stroke-linejoin="miter" stroke-opacity="1.0" fill-opacity="0.0" stroke="rgb(0,0,0)" stroke-width="1.5528821304000942" fill="rgb(0,0,0)" stroke-linecap="butt" stroke-miterlimit="10.0"><path d="M 441.9071518193225,225.9723964868256 h 150.564617314931 v -150.564617314931 h -100.37641154328733 v 50.188205771643666 h 50.188205771643666 v 50.188205771643666 h -100.37641154328733 v 50.188205771643666 "/></g><defs></defs><g stroke-linejoin="miter" stroke-opacity="1.0" fill-opacity="1.0" stroke="rgb(0,0,0)" stroke-width="0.0" fill="rgb(0,0,255)" stroke-linecap="butt" stroke-miterlimit="10.0"><path d="M 569.8870765370139,50.31367628607276 c 0.0,-1.3859090334524304 -1.1235012551297527,-2.5094102885821834 -2.509410288582183 -2.5094102885821834c -1.3859090334524304,-8.486245308634604e-17 -2.5094102885821834,1.1235012551297525 -2.5094102885821834 2.509410288582183c -1.6972490617269208e-16,1.3859090334524304 1.1235012551297525,2.5094102885821834 2.5094102885821825 2.5094102885821834c 1.3859090334524304,2.5458735925903813e-16 2.5094102885821834,-1.1235012551297523 2.5094102885821834 -2.509410288582183Z"/></g><defs></defs><g stroke-linejoin="miter" stroke-opacity="1.0" fill-opacity="0.0" stroke="rgb(0,0,255)" stroke-width="1.5528821304000942" fill="rgb(0,0,0)" stroke-linecap="butt" stroke-miterlimit="10.0"><path d="M 567.3776662484316,50.31367628607276 l 8.065638164754679,-13.44273027459115 "/></g><defs></defs><g stroke-linejoin="miter" stroke-opacity="1.0" fill-opacity="1.0" stroke="rgb(0,0,255)" stroke-width="0.0" fill="rgb(0,0,255)" stroke-linecap="butt" stroke-miterlimit="10.0"></g><defs></defs><g stroke-linejoin="miter" stroke-opacity="1.0" fill-opacity="1.0" stroke="rgb(0,0,255)" stroke-width="0.0" fill="rgb(0,0,255)" stroke-linecap="butt" stroke-miterlimit="10.0"></g><defs></defs><g stroke-linejoin="miter" stroke-opacity="1.0" fill-opacity="1.0" stroke="rgb(0,0,255)" stroke-width="0.0" fill="rgb(0,0,255)" stroke-linecap="butt" stroke-miterlimit="10.0"><path d="M 582.4341279799247,25.21957340025093 l -12.60623897204141,10.972444214254033 l 5.825432173781301,0.32890044951283326 l 3.031586125467236,4.985310530036282 Z"/></g><defs></defs><g stroke-linejoin="miter" stroke-opacity="1.0" fill-opacity="1.0" stroke="rgb(0,0,255)" stroke-width="0.0" fill="rgb(0,0,255)" stroke-linecap="butt" stroke-miterlimit="10.0"><path d="M 575.6533211816646,36.5209180640178 l -0.21001676847828687,0.35002794746381194 l -0.6657927206417529,-0.3994756323850512 l 0.8758094891200398,4.944768492123927e-2 l -0.21001676847828687,0.35002794746381194 l 0.6657927206417529,0.3994756323850512 Z"/></g><defs></defs><g stroke-linejoin="miter" stroke-opacity="1.0" fill-opacity="0.0" stroke="rgb(0,0,0)" stroke-width="1.5528821304000942" fill="rgb(0,0,0)" stroke-linecap="butt" stroke-miterlimit="10.0"><path d="M 226.09786700125468,202.13299874529486 h 150.564617314931 v -150.564617314931 h -100.37641154328733 v 50.188205771643666 h 50.188205771643666 v 50.188205771643666 h -100.37641154328733 v 50.188205771643666 "/></g><defs></defs><g stroke-linejoin="miter" stroke-opacity="1.0" fill-opacity="0.0" stroke="rgb(0,0,0)" stroke-width="1.5528821304000942" fill="rgb(0,0,0)" stroke-dashoffset="0.0" stroke-linecap="butt" stroke-miterlimit="10.0" stroke-dasharray="5.018820577164367,5.018820577164367"><path d="M 276.28607277289836,141.90715181932245 l 54.20326223337516,-90.33877038895861 "/></g><defs></defs><g stroke-linejoin="miter" stroke-opacity="1.0" fill-opacity="1.0" stroke="rgb(0,0,0)" stroke-width="0.0" fill="rgb(0,0,255)" stroke-linecap="butt" stroke-miterlimit="10.0"><path d="M 278.7954830614805,141.90715181932245 c 0.0,-1.3859090334524304 -1.1235012551297527,-2.5094102885821834 -2.509410288582183 -2.5094102885821834c -1.3859090334524304,-8.486245308634604e-17 -2.5094102885821834,1.1235012551297525 -2.5094102885821834 2.509410288582183c -1.6972490617269208e-16,1.3859090334524304 1.1235012551297525,2.5094102885821834 2.5094102885821825 2.5094102885821834c 1.3859090334524304,2.5458735925903813e-16 2.5094102885821834,-1.1235012551297523 2.5094102885821834 -2.509410288582183Z"/></g><defs></defs><g stroke-linejoin="miter" stroke-opacity="1.0" fill-opacity="0.0" stroke="rgb(0,0,255)" stroke-width="1.5528821304000942" fill="rgb(0,0,0)" stroke-linecap="butt" stroke-miterlimit="10.0"><path d="M 276.28607277289836,141.90715181932245 l 8.065638164754676,-13.442730274591147 "/></g><defs></defs><g stroke-linejoin="miter" stroke-opacity="1.0" fill-opacity="1.0" stroke="rgb(0,0,255)" stroke-width="0.0" fill="rgb(0,0,255)" stroke-linecap="butt" stroke-miterlimit="10.0"></g><defs></defs><g stroke-linejoin="miter" stroke-opacity="1.0" fill-opacity="1.0" stroke="rgb(0,0,255)" stroke-width="0.0" fill="rgb(0,0,255)" stroke-linecap="butt" stroke-miterlimit="10.0"></g><defs></defs><g stroke-linejoin="miter" stroke-opacity="1.0" fill-opacity="1.0" stroke="rgb(0,0,255)" stroke-width="0.0" fill="rgb(0,0,255)" stroke-linecap="butt" stroke-miterlimit="10.0"><path d="M 291.34253450439144,116.81304893350061 l -12.60623897204141,10.972444214254033 l 5.825432173781301,0.32890044951283326 l 3.031586125467236,4.985310530036282 Z"/></g><defs></defs><g stroke-linejoin="miter" stroke-opacity="1.0" fill-opacity="1.0" stroke="rgb(0,0,255)" stroke-width="0.0" fill="rgb(0,0,255)" stroke-linecap="butt" stroke-miterlimit="10.0"><path d="M 284.5617277061313,128.11439359726748 l -0.21001676847828687,0.35002794746381194 l -0.6657927206417529,-0.3994756323850512 l 0.8758094891200398,4.944768492123927e-2 l -0.21001676847828687,0.35002794746381194 l 0.6657927206417529,0.3994756323850512 Z"/></g><defs></defs><g stroke-linejoin="miter" stroke-opacity="1.0" fill-opacity="0.0" stroke="rgb(0,128,0)" stroke-width="1.5528821304000942" fill="rgb(0,0,0)" stroke-linecap="butt" stroke-miterlimit="10.0"><path d="M 276.28607277289836,141.90715181932245 l 47.21243866663676,-78.68739777772792 "/></g><defs></defs><g stroke-linejoin="miter" stroke-opacity="1.0" fill-opacity="1.0" stroke="rgb(0,128,0)" stroke-width="0.0" fill="rgb(0,128,0)" stroke-linecap="butt" stroke-miterlimit="10.0"></g><defs></defs><g stroke-linejoin="miter" stroke-opacity="1.0" fill-opacity="1.0" stroke="rgb(0,128,0)" stroke-width="0.0" fill="rgb(0,128,0)" stroke-linecap="butt" stroke-miterlimit="10.0"></g><defs></defs><g stroke-linejoin="miter" stroke-opacity="1.0" fill-opacity="1.0" stroke="rgb(0,128,0)" stroke-width="0.0" fill="rgb(0,128,0)" stroke-linecap="butt" stroke-miterlimit="10.0"><path d="M 330.48933500627356,51.56838143036385 l -12.606238972041417,10.972444214254024 l 5.825432173781301,0.32890044951283715 l 3.031586125467233,4.985310530036283 Z"/></g><defs></defs><g stroke-linejoin="miter" stroke-opacity="1.0" fill-opacity="1.0" stroke="rgb(0,128,0)" stroke-width="0.0" fill="rgb(0,128,0)" stroke-linecap="butt" stroke-miterlimit="10.0"><path d="M 323.70852820801343,62.86972609413071 l -0.2100167684782871,0.3500279474638118 l -0.6657927206417527,-0.3994756323850516 l 0.8758094891200398,4.9447684921239854e-2 l -0.2100167684782871,0.3500279474638118 l 0.6657927206417527,0.3994756323850516 Z"/></g><defs></defs><g stroke-linejoin="miter" stroke-opacity="1.0" fill-opacity="1.0" stroke="rgb(0,0,0)" stroke-width="0.0" fill="rgb(255,0,0)" stroke-linecap="butt" stroke-miterlimit="10.0"><path d="M 332.99874529485567,51.56838143036384 c 0.0,-1.3859090334524304 -1.1235012551297527,-2.5094102885821834 -2.509410288582183 -2.5094102885821834c -1.3859090334524304,-8.486245308634604e-17 -2.5094102885821834,1.1235012551297525 -2.5094102885821834 2.509410288582183c -1.6972490617269208e-16,1.3859090334524304 1.1235012551297525,2.5094102885821834 2.5094102885821825 2.5094102885821834c 1.3859090334524304,2.5458735925903813e-16 2.5094102885821834,-1.1235012551297523 2.5094102885821834 -2.509410288582183Z"/></g><defs></defs><g stroke-linejoin="miter" stroke-opacity="1.0" fill-opacity="0.0" stroke="rgb(0,0,0)" stroke-width="1.5528821304000942" fill="rgb(0,0,0)" stroke-linecap="butt" stroke-miterlimit="10.0"><path d="M 7.653701380175647,161.98243412797993 h 150.564617314931 v -150.564617314931 h -100.37641154328733 v 50.188205771643666 h 50.188205771643666 v 50.188205771643666 h -100.37641154328733 v 50.188205771643666 "/></g><defs></defs><g stroke-linejoin="miter" stroke-opacity="1.0" fill-opacity="0.0" stroke="rgb(0,0,0)" stroke-width="1.5528821304000942" fill="rgb(0,0,0)" stroke-dashoffset="0.0" stroke-linecap="butt" stroke-miterlimit="10.0" stroke-dasharray="5.018820577164367,5.018820577164367"><path d="M 57.84190715181931,237.26474278544543 l 100.37641154328733,-167.29401923881224 "/></g><defs></defs><g stroke-linejoin="miter" stroke-opacity="1.0" fill-opacity="1.0" stroke="rgb(0,0,0)" stroke-width="0.0" fill="rgb(0,0,255)" stroke-linecap="butt" stroke-miterlimit="10.0"><path d="M 60.351317440401495,237.26474278544543 c 0.0,-1.3859090334524304 -1.1235012551297527,-2.5094102885821834 -2.509410288582183 -2.5094102885821834c -1.3859090334524304,-8.486245308634604e-17 -2.5094102885821834,1.1235012551297525 -2.5094102885821834 2.509410288582183c -1.6972490617269208e-16,1.3859090334524304 1.1235012551297525,2.5094102885821834 2.5094102885821825 2.5094102885821834c 1.3859090334524304,2.5458735925903813e-16 2.5094102885821834,-1.1235012551297523 2.5094102885821834 -2.509410288582183Z"/></g><defs></defs><g stroke-linejoin="miter" stroke-opacity="1.0" fill-opacity="0.0" stroke="rgb(0,0,255)" stroke-width="1.5528821304000942" fill="rgb(0,0,0)" stroke-linecap="butt" stroke-miterlimit="10.0"><path d="M 57.84190715181931,237.26474278544543 l 8.065638164754699,-13.442730274591156 "/></g><defs></defs><g stroke-linejoin="miter" stroke-opacity="1.0" fill-opacity="1.0" stroke="rgb(0,0,255)" stroke-width="0.0" fill="rgb(0,0,255)" stroke-linecap="butt" stroke-miterlimit="10.0"></g><defs></defs><g stroke-linejoin="miter" stroke-opacity="1.0" fill-opacity="1.0" stroke="rgb(0,0,255)" stroke-width="0.0" fill="rgb(0,0,255)" stroke-linecap="butt" stroke-miterlimit="10.0"></g><defs></defs><g stroke-linejoin="miter" stroke-opacity="1.0" fill-opacity="1.0" stroke="rgb(0,0,255)" stroke-width="0.0" fill="rgb(0,0,255)" stroke-linecap="butt" stroke-miterlimit="10.0"><path d="M 72.89836888331241,212.1706398996236 l -12.60623897204142,10.97244421425402 l 5.825432173781301,0.3289004495128384 l 3.031586125467232,4.985310530036284 Z"/></g><defs></defs><g stroke-linejoin="miter" stroke-opacity="1.0" fill-opacity="1.0" stroke="rgb(0,0,255)" stroke-width="0.0" fill="rgb(0,0,255)" stroke-linecap="butt" stroke-miterlimit="10.0"><path d="M 66.1175620850523,223.47198456339046 l -0.21001676847828718,0.3500279474638117 l -0.6657927206417525,-0.3994756323850518 l 0.8758094891200398,4.944768492124005e-2 l -0.21001676847828718,0.3500279474638117 l 0.6657927206417525,0.3994756323850518 Z"/></g><defs></defs><g stroke-linejoin="miter" stroke-opacity="1.0" fill-opacity="0.0" stroke="rgb(0,128,0)" stroke-width="1.5528821304000942" fill="rgb(0,0,0)" stroke-linecap="butt" stroke-miterlimit="10.0"><path d="M 57.84190715181931,237.26474278544543 l 93.38558797654896,-155.6426466275815 "/></g><defs></defs><g stroke-linejoin="miter" stroke-opacity="1.0" fill-opacity="1.0" stroke="rgb(0,128,0)" stroke-width="0.0" fill="rgb(0,128,0)" stroke-linecap="butt" stroke-miterlimit="10.0"></g><defs></defs><g stroke-linejoin="miter" stroke-opacity="1.0" fill-opacity="1.0" stroke="rgb(0,128,0)" stroke-width="0.0" fill="rgb(0,128,0)" stroke-linecap="butt" stroke-miterlimit="10.0"></g><defs></defs><g stroke-linejoin="miter" stroke-opacity="1.0" fill-opacity="1.0" stroke="rgb(0,128,0)" stroke-width="0.0" fill="rgb(0,128,0)" stroke-linecap="butt" stroke-miterlimit="10.0"><path d="M 158.2183186951067,69.97072354663325 l -12.60623897204142,10.97244421425402 l 5.825432173781301,0.3289004495128384 l 3.031586125467232,4.985310530036284 Z"/></g><defs></defs><g stroke-linejoin="miter" stroke-opacity="1.0" fill-opacity="1.0" stroke="rgb(0,128,0)" stroke-width="0.0" fill="rgb(0,128,0)" stroke-linecap="butt" stroke-miterlimit="10.0"><path d="M 151.43751189684656,81.2720682104001 l -0.21001676847828718,0.3500279474638117 l -0.6657927206417525,-0.3994756323850518 l 0.8758094891200398,4.944768492124005e-2 l -0.21001676847828718,0.3500279474638117 l 0.6657927206417525,0.3994756323850518 Z"/></g><defs></defs><g stroke-linejoin="miter" stroke-opacity="1.0" fill-opacity="1.0" stroke="rgb(0,0,0)" stroke-width="0.0" fill="rgb(255,0,0)" stroke-linecap="butt" stroke-miterlimit="10.0"><path d="M 160.72772898368885,69.9707235466332 c 0.0,-1.3859090334524304 -1.1235012551297527,-2.5094102885821834 -2.509410288582183 -2.5094102885821834c -1.3859090334524304,-8.486245308634604e-17 -2.5094102885821834,1.1235012551297525 -2.5094102885821834 2.509410288582183c -1.6972490617269208e-16,1.3859090334524304 1.1235012551297525,2.5094102885821834 2.5094102885821825 2.5094102885821834c 1.3859090334524304,2.5458735925903813e-16 2.5094102885821834,-1.1235012551297523 2.5094102885821834 -2.509410288582183Z"/></g></g></svg>