<?xml version="1.0" encoding="UTF-8"?>
<!DOCTYPE svg PUBLIC "-//W3C//DTD SVG 1.1//EN"
    "http://www.w3.org/Graphics/SVG/1.1/DTD/svg11.dtd"><svg xmlns="http://www.w3.org/2000/svg" height="206.66666666666666" stroke-opacity="1" viewBox="0 0 200 207" font-size="1" width="200.0" xmlns:xlink="http://www.w3.org/1999/xlink" stroke="rgb(0,0,0)" version="1.1"><g><defs></defs><g stroke-linejoin="miter" stroke-opacity="1.0" fill-opacity="0.0" stroke="rgb(0,0,0)" stroke-width="0.8132240363721016" fill="rgb(0,0,0)" stroke-linecap="butt" stroke-miterlimit="10.0"><path d="M 9.090909090909093,194.24242424242425 h 181.8181818181818 v -181.8181818181818 h -121.2121212121212 v 60.6060606060606 h 60.6060606060606 v 60.6060606060606 h -121.2121212121212 v 60.6060606060606 "/></g><defs></defs><g stroke-linejoin="miter" stroke-opacity="1.0" fill-opacity="0.0" stroke="rgb(0,0,0)" stroke-width="0.8132240363721016" fill="rgb(0,0,0)" stroke-dashoffset="0.0" stroke-linecap="butt" stroke-miterlimit="10.0" stroke-dasharray="6.0606060606060606,6.0606060606060606"><path d="M 69.69696969696969,121.51515151515153 l -43.63636363636363,72.72727272727272 "/></g><defs></defs><g stroke-linejoin="miter" stroke-opacity="1.0" fill-opacity="0.0" stroke="rgb(0,0,0)" stroke-width="0.8132240363721016" fill="rgb(0,0,0)" stroke-dashoffset="0.0" stroke-linecap="butt" stroke-miterlimit="10.0" stroke-dasharray="6.0606060606060606,6.0606060606060606"><path d="M 69.69696969696969,121.51515151515153 l 65.45454545454545,-109.09090909090908 "/></g><defs></defs><g stroke-linejoin="miter" stroke-opacity="1.0" fill-opacity="1.0" stroke="rgb(0,0,0)" stroke-width="0.0" fill="rgb(0,0,255)" stroke-linecap="butt" stroke-miterlimit="10.0"><path d="M 72.72727272727272,121.51515151515153 c 0.0,-1.6735901510024043 -1.3567128793006256,-3.0303030303030303 -3.0303030303030294 -3.0303030303030303c -1.6735901510024043,-1.024778410754815e-16 -3.0303030303030303,1.3567128793006253 -3.0303030303030303 3.0303030303030294c -2.04955682150963e-16,1.6735901510024043 1.3567128793006253,3.0303030303030303 3.030303030303029 3.0303030303030303c 1.6735901510024043,3.074335232264445e-16 3.0303030303030303,-1.3567128793006251 3.0303030303030307 -3.0303030303030294Z"/></g><defs></defs><g stroke-linejoin="miter" stroke-opacity="1.0" fill-opacity="0.0" stroke="rgb(0,0,255)" stroke-width="0.8132240363721016" fill="rgb(0,0,0)" stroke-linecap="butt" stroke-miterlimit="10.0"><path d="M 69.69696969696969,121.51515151515153 l 14.520815426223674,-24.20135904370611 "/></g><defs></defs><g stroke-linejoin="miter" stroke-opacity="1.0" fill-opacity="1.0" stroke="rgb(0,0,255)" stroke-width="0.0" fill="rgb(0,0,255)" stroke-linecap="butt" stroke-miterlimit="10.0"></g><defs></defs><g stroke-linejoin="miter" stroke-opacity="1.0" fill-opacity="1.0" stroke="rgb(0,0,255)" stroke-width="0.0" fill="rgb(0,0,255)" stroke-linecap="butt" stroke-miterlimit="10.0"></g><defs></defs><g stroke-linejoin="miter" stroke-opacity="1.0" fill-opacity="1.0" stroke="rgb(0,0,255)" stroke-width="0.0" fill="rgb(0,0,255)" stroke-linecap="butt" stroke-miterlimit="10.0"><path d="M 87.87878787878788,91.21212121212123 l -6.601722268304747,5.746125348537803 l 3.0507025441485167,0.1722408583892434 l 1.5876019546486326,2.610741840889048 Z"/></g><defs></defs><g stroke-linejoin="miter" stroke-opacity="1.0" fill-opacity="1.0" stroke="rgb(0,0,255)" stroke-width="0.0" fill="rgb(0,0,255)" stroke-linecap="butt" stroke-miterlimit="10.0"><path d="M 84.32776815463164,97.13048741904828 l -0.10998303143828068,0.18330505239713438 l -0.3486669291042389,-0.20920015746254347 l 0.4586499605425196,2.5895105065409086e-2 l -0.10998303143828068,0.18330505239713438 l 0.3486669291042389,0.20920015746254347 Z"/></g><defs></defs><g stroke-linejoin="miter" stroke-opacity="1.0" fill-opacity="1.0" stroke="rgb(0,0,0)" stroke-width="0.0" fill="rgb(255,0,0)" stroke-linecap="butt" stroke-miterlimit="10.0"><path d="M 138.1818181818182,12.424242424242436 c 0.0,-1.6735901510024043 -1.3567128793006256,-3.0303030303030303 -3.0303030303030294 -3.0303030303030303c -1.6735901510024043,-1.024778410754815e-16 -3.0303030303030303,1.3567128793006253 -3.0303030303030303 3.0303030303030294c -2.04955682150963e-16,1.6735901510024043 1.3567128793006253,3.0303030303030303 3.030303030303029 3.0303030303030303c 1.6735901510024043,3.074335232264445e-16 3.0303030303030303,-1.3567128793006251 3.0303030303030307 -3.0303030303030294Z"/></g><defs></defs><g stroke-linejoin="miter" stroke-opacity="1.0" fill-opacity="1.0" stroke="rgb(0,0,0)" stroke-width="0.0" fill="rgb(255,0,0)" stroke-linecap="butt" stroke-miterlimit="10.0"><path d="M 101.81818181818181,73.03030303030305 c 0.0,-1.6735901510024043 -1.3567128793006256,-3.0303030303030303 -3.0303030303030294 -3.0303030303030303c -1.6735901510024043,-1.024778410754815e-16 -3.0303030303030303,1.3567128793006253 -3.0303030303030303 3.0303030303030294c -2.04955682150963e-16,1.6735901510024043 1.3567128793006253,3.0303030303030303 3.030303030303029 3.0303030303030303c 1.6735901510024043,3.074335232264445e-16 3.0303030303030303,-1.3567128793006251 3.0303030303030307 -3.0303030303030294Z"/></g><defs></defs><g stroke-linejoin="miter" stroke-opacity="1.0" fill-opacity="1.0" stroke="rgb(0,0,0)" stroke-width="0.0" fill="rgb(255,0,0)" stroke-linecap="butt" stroke-miterlimit="10.0"><path d="M 65.45454545454545,133.63636363636365 c 0.0,-1.6735901510024043 -1.3567128793006256,-3.0303030303030303 -3.0303030303030294 -3.0303030303030303c -1.6735901510024043,-1.024778410754815e-16 -3.0303030303030303,1.3567128793006253 -3.0303030303030303 3.0303030303030294c -2.04955682150963e-16,1.6735901510024043 1.3567128793006253,3.0303030303030303 3.030303030303029 3.0303030303030303c 1.6735901510024043,3.074335232264445e-16 3.0303030303030303,-1.3567128793006251 3.0303030303030307 -3.0303030303030294Z"/></g><defs></defs><g stroke-linejoin="miter" stroke-opacity="1.0" fill-opacity="1.0" stroke="rgb(0,0,0)" stroke-width="0.0" fill="rgb(255,0,0)" stroke-linecap="butt" stroke-miterlimit="10.0"><path d="M 29.090909090909093,194.24242424242425 c 0.0,-1.6735901510024043 -1.3567128793006256,-3.0303030303030303 -3.0303030303030294 -3.0303030303030303c -1.6735901510024043,-1.024778410754815e-16 -3.0303030303030303,1.3567128793006253 -3.0303030303030303 3.0303030303030294c -2.04955682150963e-16,1.6735901510024043 1.3567128793006253,3.0303030303030303 3.030303030303029 3.0303030303030303c 1.6735901510024043,3.074335232264445e-16 3.0303030303030303,-1.3567128793006251 3.0303030303030307 -3.0303030303030294Z"/></g></g></svg>