<svg xmlns="http://www.w3.org/2000/svg" height="206.6667" stroke-opacity="1" viewBox="0 0 200 207" font-size="1" width="200.0000" xmlns:xlink="http://www.w3.org/1999/xlink" stroke="rgb(0,0,0)" version="1.1"><defs></defs><g stroke-linejoin="miter" stroke-opacity="1.0" fill-opacity="0.0" stroke="rgb(0,0,0)" stroke-width="0.8132240363721016" fill="rgb(0,0,0)" stroke-linecap="butt" stroke-miterlimit="10.0"><path d="M 9.0909,194.2424 h 181.8182 v -181.8182 h -121.2121 v 60.6061 h 60.6061 v 60.6061 h -121.2121 v 60.6061 "/></g><g stroke-linejoin="miter" stroke-opacity="1.0" fill-opacity="0.0" stroke="rgb(0,0,0)" stroke-width="0.8132240363721016" fill="rgb(0,0,0)" stroke-dashoffset="0.0" stroke-linecap="butt" stroke-miterlimit="10.0" stroke-dasharray="6.0606060606060606,6.0606060606060606"><path d="M 69.6970,121.5152 l -43.6364,72.7273 "/></g><g stroke-linejoin="miter" stroke-opacity="1.0" fill-opacity="0.0" stroke="rgb(0,0,0)" stroke-width="0.8132240363721016" fill="rgb(0,0,0)" stroke-dashoffset="0.0" stroke-linecap="butt" stroke-miterlimit="10.0" stroke-dasharray="6.0606060606060606,6.0606060606060606"><path d="M 69.6970,121.5152 l 65.4545,-109.0909 "/></g><g stroke-linejoin="miter" stroke-opacity="1.0" fill-opacity="1.0" stroke="rgb(0,0,0)" stroke-width="0.0" fill="rgb(0,0,255)" stroke-linecap="butt" stroke-miterlimit="10.0"><path d="M 72.7273,121.5152 c 0.0000,-1.6736 -1.3567,-3.0303 -3.0303 -3.0303c -1.6736,-0.0000 -3.0303,1.3567 -3.0303 3.0303c -0.0000,1.6736 1.3567,3.0303 3.0303 3.0303c 1.6736,0.0000 3.0303,-1.3567 3.0303 -3.0303Z"/></g><g stroke-linejoin="miter" stroke-opacity="1.0" fill-opacity="0.0" stroke="rgb(0,0,255)" stroke-width="0.8132240363721016" fill="rgb(0,0,0)" stroke-linecap="butt" stroke-miterlimit="10.0"><path d="M 69.6970,121.5152 l 14.5208,-24.2014 "/></g><g stroke-linejoin="miter" stroke-opacity="1.0" fill-opacity="1.0" stroke="rgb(0,0,255)" stroke-width="0.0" fill="rgb(0,0,255)" stroke-linecap="butt" stroke-miterlimit="10.0"></g><g stroke-linejoin="miter" stroke-opacity="1.0" fill-opacity="1.0" stroke="rgb(0,0,255)" stroke-width="0.0" fill="rgb(0,0,255)" stroke-linecap="butt" stroke-miterlimit="10.0"></g><g stroke-linejoin="miter" stroke-opacity="1.0" fill-opacity="1.0" stroke="rgb(0,0,255)" stroke-width="0.0" fill="rgb(0,0,255)" stroke-linecap="butt" stroke-miterlimit="10.0"><path d="M 87.8788,91.2121 l -6.6017,5.7461 l 3.0507,0.1722 l 1.5876,2.6107 Z"/></g><g stroke-linejoin="miter" stroke-opacity="1.0" fill-opacity="1.0" stroke="rgb(0,0,255)" stroke-width="0.0" fill="rgb(0,0,255)" stroke-linecap="butt" stroke-miterlimit="10.0"><path d="M 84.3278,97.1305 l -0.1100,0.1833 l -0.3487,-0.2092 l 0.4586,0.0259 l -0.1100,0.1833 l 0.3487,0.2092 Z"/></g><g stroke-linejoin="miter" stroke-opacity="1.0" fill-opacity="1.0" stroke="rgb(0,0,0)" stroke-width="0.0" fill="rgb(255,0,0)" stroke-linecap="butt" stroke-miterlimit="10.0"><path d="M 138.1818,12.4242 c 0.0000,-1.6736 -1.3567,-3.0303 -3.0303 -3.0303c -1.6736,-0.0000 -3.0303,1.3567 -3.0303 3.0303c -0.0000,1.6736 1.3567,3.0303 3.0303 3.0303c 1.6736,0.0000 3.0303,-1.3567 3.0303 -3.0303Z"/></g><g stroke-linejoin="miter" stroke-opacity="1.0" fill-opacity="1.0" stroke="rgb(0,0,0)" stroke-width="0.0" fill="rgb(255,0,0)" stroke-linecap="butt" stroke-miterlimit="10.0"><path d="M 101.8182,73.0303 c 0.0000,-1.6736 -1.3567,-3.0303 -3.0303 -3.0303c -1.6736,-0.0000 -3.0303,1.3567 -3.0303 3.0303c -0.0000,1.6736 1.3567,3.0303 3.0303 3.0303c 1.6736,0.0000 3.0303,-1.3567 3.0303 -3.0303Z"/></g><g stroke-linejoin="miter" stroke-opacity="1.0" fill-opacity="1.0" stroke="rgb(0,0,0)" stroke-width="0.0" fill="rgb(255,0,0)" stroke-linecap="butt" stroke-miterlimit="10.0"><path d="M 65.4545,133.6364 c 0.0000,-1.6736 -1.3567,-3.0303 -3.0303 -3.0303c -1.6736,-0.0000 -3.0303,1.3567 -3.0303 3.0303c -0.0000,1.6736 1.3567,3.0303 3.0303 3.0303c 1.6736,0.0000 3.0303,-1.3567 3.0303 -3.0303Z"/></g><g stroke-linejoin="miter" stroke-opacity="1.0" fill-opacity="1.0" stroke="rgb(0,0,0)" stroke-width="0.0" fill="rgb(255,0,0)" stroke-linecap="butt" stroke-miterlimit="10.0"><path d="M 29.0909,194.2424 c 0.0000,-1.6736 -1.3567,-3.0303 -3.0303 -3.0303c -1.6736,-0.0000 -3.0303,1.3567 -3.0303 3.0303c -0.0000,1.6736 1.3567,3.0303 3.0303 3.0303c 1.6736,0.0000 3.0303,-1.3567 3.0303 -3.0303Z"/></g></svg>