<?xml version="1.0" encoding="UTF-8"?>
<!DOCTYPE svg PUBLIC "-//W3C//DTD SVG 1.1//EN"
    "http://www.w3.org/Graphics/SVG/1.1/DTD/svg11.dtd">
<svg xmlns="http://www.w3.org/2000/svg" xmlns:xlink="http://www.w3.org/1999/xlink" version="1.1" width="600.0" height="252.3529411764706" font-size="1" viewBox="0 0 600 252" stroke="rgb(0,0,0)" stroke-opacity="1"><g><g fill="rgb(0,0,0)" fill-opacity="0.0"><g stroke="rgb(0,0,0)" stroke-opacity="1.0" stroke-width="1.55646658662951" stroke-linecap="butt" stroke-linejoin="miter" font-size="1.0em" stroke-miterlimit="10.0"><g><g><path d="M 441.1764705882354,225.75630252100842 h 151.26050420168067 v -151.26050420168067 h -100.84033613445378 v 50.42016806722689 h 50.42016806722689 v 50.42016806722689 h -100.84033613445378 v 50.42016806722689 " /><g stroke-dasharray="5.042016806722689,5.042016806722689" stroke-dashoffset="0.0"><path d="M 567.2268907563026,49.285714285714306 l -105.88235294117648,176.47058823529412 " /></g><g fill="rgb(0,0,255)" fill-opacity="1.0" stroke-width="0.0"><g fill="rgb(0,0,255)" fill-opacity="1.0"><g fill="rgb(0,0,255)" fill-opacity="1.0"><path d="M 569.7478991596639,49.285714285714306 c 0.0,-1.3923144953717481 -1.1286939079895961,-2.5210084033613445 -2.521008403361344 -2.5210084033613445c -1.3923144953717481,-8.525467450817369e-17 -2.5210084033613445,1.128693907989596 -2.5210084033613445 2.5210084033613436c -1.7050934901634737e-16,1.3923144953717481 1.1286939079895957,2.5210084033613445 2.521008403361343 2.5210084033613445c 1.3923144953717481,2.5576402352452103e-16 2.5210084033613445,-1.1286939079895957 2.521008403361346 -2.5210084033613436Z" /></g></g></g><g stroke="rgb(0,0,255)" stroke-opacity="1.0"><g><g><path d="M 567.2268907563025,49.285714285714306 l 8.119090212668617,-13.53181702111433 " /></g><g stroke-width="0.0"><g fill="rgb(0,0,255)" fill-opacity="1.0"><g fill="rgb(0,0,255)" fill-opacity="1.0"><g fill="rgb(0,0,255)" fill-opacity="1.0"><path d="" /></g></g></g><g fill="rgb(0,0,255)" fill-opacity="1.0"><g fill="rgb(0,0,255)" fill-opacity="1.0"><g fill="rgb(0,0,255)" fill-opacity="1.0"><path d="" /></g></g></g></g><g stroke-width="0.0"><g fill="rgb(0,0,255)" fill-opacity="1.0"><g fill="rgb(0,0,255)" fill-opacity="1.0"><g fill="rgb(0,0,255)" fill-opacity="1.0"><path d="M 582.3529411764706,24.075630252100865 l -3.799486429928585,16.50501018700616 l -3.072230564730154,-5.052148529241624 l -5.90353367390974,-0.33331001394232596 Z" /></g></g></g><g fill="rgb(0,0,255)" fill-opacity="1.0"><g fill="rgb(0,0,255)" fill-opacity="1.0"><g fill="rgb(0,0,255)" fill-opacity="1.0"><path d="M 575.4812241818119,35.5284919098654 l -0.13524321284074386,0.22540535473457254 l 0.4287464628562718,0.25724787771376373 l -0.29350325001552796,-0.48265323244833624 l -0.13524321284074386,0.22540535473457254 l -0.4287464628562718,-0.25724787771376373 Z" /></g></g></g></g></g></g><g fill="rgb(255,0,0)" fill-opacity="1.0" stroke-width="0.0"><g fill="rgb(255,0,0)" fill-opacity="1.0"><g fill="rgb(255,0,0)" fill-opacity="1.0"><path d="M 463.8655462184875,225.75630252100842 c 0.0,-1.3923144953717481 -1.1286939079895961,-2.5210084033613445 -2.521008403361344 -2.5210084033613445c -1.3923144953717481,-8.525467450817369e-17 -2.5210084033613445,1.128693907989596 -2.5210084033613445 2.5210084033613436c -1.7050934901634737e-16,1.3923144953717481 1.1286939079895957,2.5210084033613445 2.521008403361343 2.5210084033613445c 1.3923144953717481,2.5576402352452103e-16 2.5210084033613445,-1.1286939079895957 2.521008403361346 -2.5210084033613436Z" /></g></g></g></g></g><g><g><path d="M 224.36974789915968,200.54621848739498 h 151.26050420168067 v -151.26050420168067 h -100.84033613445378 v 50.42016806722689 h 50.42016806722689 v 50.42016806722689 h -100.84033613445378 v 50.42016806722689 " /><g stroke-dasharray="5.042016806722689,5.042016806722689" stroke-dashoffset="0.0"><path d="M 274.78991596638656,140.0420168067227 l -36.30252100840336,60.50420168067227 " /></g><g fill="rgb(0,0,255)" fill-opacity="1.0" stroke-width="0.0"><g fill="rgb(0,0,255)" fill-opacity="1.0"><g fill="rgb(0,0,255)" fill-opacity="1.0"><path d="M 277.3109243697479,140.0420168067227 c 0.0,-1.3923144953717481 -1.1286939079895961,-2.5210084033613445 -2.521008403361344 -2.5210084033613445c -1.3923144953717481,-8.525467450817369e-17 -2.5210084033613445,1.128693907989596 -2.5210084033613445 2.5210084033613436c -1.7050934901634737e-16,1.3923144953717481 1.1286939079895957,2.5210084033613445 2.521008403361343 2.5210084033613445c 1.3923144953717481,2.5576402352452103e-16 2.5210084033613445,-1.1286939079895957 2.521008403361346 -2.5210084033613436Z" /></g></g></g><g stroke="rgb(0,0,255)" stroke-opacity="1.0"><g><g><path d="M 274.78991596638656,140.0420168067227 l 8.11909021266858,-13.53181702111432 " /></g><g stroke-width="0.0"><g fill="rgb(0,0,255)" fill-opacity="1.0"><g fill="rgb(0,0,255)" fill-opacity="1.0"><g fill="rgb(0,0,255)" fill-opacity="1.0"><path d="" /></g></g></g><g fill="rgb(0,0,255)" fill-opacity="1.0"><g fill="rgb(0,0,255)" fill-opacity="1.0"><g fill="rgb(0,0,255)" fill-opacity="1.0"><path d="" /></g></g></g></g><g stroke-width="0.0"><g fill="rgb(0,0,255)" fill-opacity="1.0"><g fill="rgb(0,0,255)" fill-opacity="1.0"><g fill="rgb(0,0,255)" fill-opacity="1.0"><path d="M 289.9159663865546,114.83193277310926 l -3.799486429928556,16.505010187006164 l -3.072230564730163,-5.0521485292416175 l -5.90353367390974,-0.33331001394231574 Z" /></g></g></g><g fill="rgb(0,0,255)" fill-opacity="1.0"><g fill="rgb(0,0,255)" fill-opacity="1.0"><g fill="rgb(0,0,255)" fill-opacity="1.0"><path d="M 283.0442493918959,126.2847944308738 l -0.13524321284074345,0.22540535473457277 l 0.42874646285627227,0.25724787771376295 l -0.2935032500155288,-0.4826532324483357 l -0.13524321284074345,0.22540535473457277 l -0.42874646285627227,-0.25724787771376295 Z" /></g></g></g></g></g></g><g fill="rgb(255,0,0)" fill-opacity="1.0" stroke-width="0.0"><g fill="rgb(255,0,0)" fill-opacity="1.0"><g fill="rgb(255,0,0)" fill-opacity="1.0"><path d="M 241.00840336134456,200.54621848739498 c 0.0,-1.3923144953717481 -1.1286939079895961,-2.5210084033613445 -2.521008403361344 -2.5210084033613445c -1.3923144953717481,-8.525467450817369e-17 -2.5210084033613445,1.128693907989596 -2.5210084033613445 2.5210084033613436c -1.7050934901634737e-16,1.3923144953717481 1.1286939079895957,2.5210084033613445 2.521008403361343 2.5210084033613445c 1.3923144953717481,2.5576402352452103e-16 2.5210084033613445,-1.1286939079895957 2.521008403361346 -2.5210084033613436Z" /></g></g></g></g></g><g><path d="M 7.563025210084035,162.7310924369748 h 151.26050420168067 v -151.26050420168067 h -100.84033613445378 v 50.42016806722689 h 50.42016806722689 v 50.42016806722689 h -100.84033613445378 v 50.42016806722689 " /><g stroke-dasharray="5.042016806722689,5.042016806722689" stroke-dashoffset="0.0"><path d="M 57.983193277310924,238.3613445378151 l 45.3781512605042,-75.63025210084034 " /></g><g fill="rgb(0,0,255)" fill-opacity="1.0" stroke-width="0.0"><g fill="rgb(0,0,255)" fill-opacity="1.0"><g fill="rgb(0,0,255)" fill-opacity="1.0"><path d="M 60.50420168067227,238.3613445378151 c 0.0,-1.3923144953717481 -1.1286939079895961,-2.5210084033613445 -2.521008403361344 -2.5210084033613445c -1.3923144953717481,-8.525467450817369e-17 -2.5210084033613445,1.128693907989596 -2.5210084033613445 2.5210084033613436c -1.7050934901634737e-16,1.3923144953717481 1.1286939079895957,2.5210084033613445 2.521008403361343 2.5210084033613445c 1.3923144953717481,2.5576402352452103e-16 2.5210084033613445,-1.1286939079895957 2.521008403361346 -2.5210084033613436Z" /></g></g></g><g stroke="rgb(0,0,255)" stroke-opacity="1.0"><g><g><path d="M 57.983193277310924,238.3613445378151 l 8.119090212668594,-13.531817021114325 " /></g><g stroke-width="0.0"><g fill="rgb(0,0,255)" fill-opacity="1.0"><g fill="rgb(0,0,255)" fill-opacity="1.0"><g fill="rgb(0,0,255)" fill-opacity="1.0"><path d="" /></g></g></g><g fill="rgb(0,0,255)" fill-opacity="1.0"><g fill="rgb(0,0,255)" fill-opacity="1.0"><g fill="rgb(0,0,255)" fill-opacity="1.0"><path d="" /></g></g></g></g><g stroke-width="0.0"><g fill="rgb(0,0,255)" fill-opacity="1.0"><g fill="rgb(0,0,255)" fill-opacity="1.0"><g fill="rgb(0,0,255)" fill-opacity="1.0"><path d="M 73.10924369747899,213.15126050420167 l -3.7994864299285664,16.505010187006164 l -3.0722305647301598,-5.052148529241619 l -5.903533673909739,-0.3333100139423193 Z" /></g></g></g><g fill="rgb(0,0,255)" fill-opacity="1.0"><g fill="rgb(0,0,255)" fill-opacity="1.0"><g fill="rgb(0,0,255)" fill-opacity="1.0"><path d="M 66.23752670282026,224.60412216196622 l -0.1352432128407436,0.22540535473457268 l 0.4287464628562721,0.25724787771376323 l -0.2935032500155285,-0.4826532324483359 l -0.1352432128407436,0.22540535473457268 l -0.4287464628562721,-0.25724787771376323 Z" /></g></g></g></g></g></g><g fill="rgb(255,0,0)" fill-opacity="1.0" stroke-width="0.0"><g fill="rgb(255,0,0)" fill-opacity="1.0"><g fill="rgb(255,0,0)" fill-opacity="1.0"><path d="M 105.88235294117646,162.7310924369748 c 0.0,-1.3923144953717481 -1.1286939079895961,-2.5210084033613445 -2.521008403361344 -2.5210084033613445c -1.3923144953717481,-8.525467450817369e-17 -2.5210084033613445,1.128693907989596 -2.5210084033613445 2.5210084033613436c -1.7050934901634737e-16,1.3923144953717481 1.1286939079895957,2.5210084033613445 2.521008403361343 2.5210084033613445c 1.3923144953717481,2.5576402352452103e-16 2.5210084033613445,-1.1286939079895957 2.521008403361346 -2.5210084033613436Z" /></g></g></g></g></g></g></g></svg>