<svg xmlns="http://www.w3.org/2000/svg" height="252.3529" stroke-opacity="1" viewBox="0 0 600 252" font-size="1" width="600.0000" xmlns:xlink="http://www.w3.org/1999/xlink" stroke="rgb(0,0,0)" version="1.1"><defs></defs><g stroke-linejoin="miter" stroke-opacity="1.0" fill-opacity="0.0" stroke="rgb(0,0,0)" stroke-width="1.5564665866295098" fill="rgb(0,0,0)" stroke-linecap="butt" stroke-miterlimit="10.0"><path d="M 441.1765,227.0168 h 151.2605 v -151.2605 h -100.8403 v 50.4202 h 50.4202 v 50.4202 h -100.8403 v 50.4202 "/></g><g stroke-linejoin="miter" stroke-opacity="1.0" fill-opacity="1.0" stroke="rgb(0,0,0)" stroke-width="0.0" fill="rgb(0,0,255)" stroke-linecap="butt" stroke-miterlimit="10.0"><path d="M 569.7479,50.5462 c 0.0000,-1.3923 -1.1287,-2.5210 -2.5210 -2.5210c -1.3923,-0.0000 -2.5210,1.1287 -2.5210 2.5210c -0.0000,1.3923 1.1287,2.5210 2.5210 2.5210c 1.3923,0.0000 2.5210,-1.1287 2.5210 -2.5210Z"/></g><g stroke-linejoin="miter" stroke-opacity="1.0" fill-opacity="0.0" stroke="rgb(0,0,255)" stroke-width="1.5564665866295098" fill="rgb(0,0,0)" stroke-linecap="butt" stroke-miterlimit="10.0"><path d="M 567.2269,50.5462 l 8.1191,-13.5318 "/></g><g stroke-linejoin="miter" stroke-opacity="1.0" fill-opacity="1.0" stroke="rgb(0,0,255)" stroke-width="0.0" fill="rgb(0,0,255)" stroke-linecap="butt" stroke-miterlimit="10.0"></g><g stroke-linejoin="miter" stroke-opacity="1.0" fill-opacity="1.0" stroke="rgb(0,0,255)" stroke-width="0.0" fill="rgb(0,0,255)" stroke-linecap="butt" stroke-miterlimit="10.0"></g><g stroke-linejoin="miter" stroke-opacity="1.0" fill-opacity="1.0" stroke="rgb(0,0,255)" stroke-width="0.0" fill="rgb(0,0,255)" stroke-linecap="butt" stroke-miterlimit="10.0"><path d="M 582.3529,25.3361 l -12.6353,10.9978 l 5.8389,0.3297 l 3.0386,4.9968 Z"/></g><g stroke-linejoin="miter" stroke-opacity="1.0" fill-opacity="1.0" stroke="rgb(0,0,255)" stroke-width="0.0" fill="rgb(0,0,255)" stroke-linecap="butt" stroke-miterlimit="10.0"><path d="M 575.5565,36.6636 l -0.2105,0.3508 l -0.6673,-0.4004 l 0.8778,0.0496 l -0.2105,0.3508 l 0.6673,0.4004 Z"/></g><g stroke-linejoin="miter" stroke-opacity="1.0" fill-opacity="0.0" stroke="rgb(0,0,0)" stroke-width="1.5564665866295098" fill="rgb(0,0,0)" stroke-linecap="butt" stroke-miterlimit="10.0"><path d="M 224.3697,201.8067 h 151.2605 v -151.2605 h -100.8403 v 50.4202 h 50.4202 v 50.4202 h -100.8403 v 50.4202 "/></g><g stroke-linejoin="miter" stroke-opacity="1.0" fill-opacity="0.0" stroke="rgb(0,0,0)" stroke-width="1.5564665866295098" fill="rgb(0,0,0)" stroke-dashoffset="0.0" stroke-linecap="butt" stroke-miterlimit="10.0" stroke-dasharray="5.042016806722689,5.042016806722689"><path d="M 274.7899,141.3025 l 24.2017,-40.3361 "/></g><g stroke-linejoin="miter" stroke-opacity="1.0" fill-opacity="1.0" stroke="rgb(0,0,0)" stroke-width="0.0" fill="rgb(0,0,255)" stroke-linecap="butt" stroke-miterlimit="10.0"><path d="M 277.3109,141.3025 c 0.0000,-1.3923 -1.1287,-2.5210 -2.5210 -2.5210c -1.3923,-0.0000 -2.5210,1.1287 -2.5210 2.5210c -0.0000,1.3923 1.1287,2.5210 2.5210 2.5210c 1.3923,0.0000 2.5210,-1.1287 2.5210 -2.5210Z"/></g><g stroke-linejoin="miter" stroke-opacity="1.0" fill-opacity="0.0" stroke="rgb(0,0,255)" stroke-width="1.5564665866295098" fill="rgb(0,0,0)" stroke-linecap="butt" stroke-miterlimit="10.0"><path d="M 274.7899,141.3025 l 8.1191,-13.5318 "/></g><g stroke-linejoin="miter" stroke-opacity="1.0" fill-opacity="1.0" stroke="rgb(0,0,255)" stroke-width="0.0" fill="rgb(0,0,255)" stroke-linecap="butt" stroke-miterlimit="10.0"></g><g stroke-linejoin="miter" stroke-opacity="1.0" fill-opacity="1.0" stroke="rgb(0,0,255)" stroke-width="0.0" fill="rgb(0,0,255)" stroke-linecap="butt" stroke-miterlimit="10.0"></g><g stroke-linejoin="miter" stroke-opacity="1.0" fill-opacity="1.0" stroke="rgb(0,0,255)" stroke-width="0.0" fill="rgb(0,0,255)" stroke-linecap="butt" stroke-miterlimit="10.0"><path d="M 289.9160,116.0924 l -12.6353,10.9978 l 5.8389,0.3297 l 3.0386,4.9968 Z"/></g><g stroke-linejoin="miter" stroke-opacity="1.0" fill-opacity="1.0" stroke="rgb(0,0,255)" stroke-width="0.0" fill="rgb(0,0,255)" stroke-linecap="butt" stroke-miterlimit="10.0"><path d="M 283.1195,127.4199 l -0.2105,0.3508 l -0.6673,-0.4004 l 0.8778,0.0496 l -0.2105,0.3508 l 0.6673,0.4004 Z"/></g><g stroke-linejoin="miter" stroke-opacity="1.0" fill-opacity="1.0" stroke="rgb(0,0,0)" stroke-width="0.0" fill="rgb(255,0,0)" stroke-linecap="butt" stroke-miterlimit="10.0"><path d="M 301.5126,100.9664 c 0.0000,-1.3923 -1.1287,-2.5210 -2.5210 -2.5210c -1.3923,-0.0000 -2.5210,1.1287 -2.5210 2.5210c -0.0000,1.3923 1.1287,2.5210 2.5210 2.5210c 1.3923,0.0000 2.5210,-1.1287 2.5210 -2.5210Z"/></g><g stroke-linejoin="miter" stroke-opacity="1.0" fill-opacity="0.0" stroke="rgb(0,0,0)" stroke-width="1.5564665866295098" fill="rgb(0,0,0)" stroke-linecap="butt" stroke-miterlimit="10.0"><path d="M 7.5630,162.7311 h 151.2605 v -151.2605 h -100.8403 v 50.4202 h 50.4202 v 50.4202 h -100.8403 v 50.4202 "/></g><g stroke-linejoin="miter" stroke-opacity="1.0" fill-opacity="0.0" stroke="rgb(0,0,0)" stroke-width="1.5564665866295098" fill="rgb(0,0,0)" stroke-dashoffset="0.0" stroke-linecap="butt" stroke-miterlimit="10.0" stroke-dasharray="5.042016806722689,5.042016806722689"><path d="M 57.9832,238.3613 l 45.3782,-75.6303 "/></g><g stroke-linejoin="miter" stroke-opacity="1.0" fill-opacity="1.0" stroke="rgb(0,0,0)" stroke-width="0.0" fill="rgb(0,0,255)" stroke-linecap="butt" stroke-miterlimit="10.0"><path d="M 60.5042,238.3613 c 0.0000,-1.3923 -1.1287,-2.5210 -2.5210 -2.5210c -1.3923,-0.0000 -2.5210,1.1287 -2.5210 2.5210c -0.0000,1.3923 1.1287,2.5210 2.5210 2.5210c 1.3923,0.0000 2.5210,-1.1287 2.5210 -2.5210Z"/></g><g stroke-linejoin="miter" stroke-opacity="1.0" fill-opacity="0.0" stroke="rgb(0,0,255)" stroke-width="1.5564665866295098" fill="rgb(0,0,0)" stroke-linecap="butt" stroke-miterlimit="10.0"><path d="M 57.9832,238.3613 l 8.1191,-13.5318 "/></g><g stroke-linejoin="miter" stroke-opacity="1.0" fill-opacity="1.0" stroke="rgb(0,0,255)" stroke-width="0.0" fill="rgb(0,0,255)" stroke-linecap="butt" stroke-miterlimit="10.0"></g><g stroke-linejoin="miter" stroke-opacity="1.0" fill-opacity="1.0" stroke="rgb(0,0,255)" stroke-width="0.0" fill="rgb(0,0,255)" stroke-linecap="butt" stroke-miterlimit="10.0"></g><g stroke-linejoin="miter" stroke-opacity="1.0" fill-opacity="1.0" stroke="rgb(0,0,255)" stroke-width="0.0" fill="rgb(0,0,255)" stroke-linecap="butt" stroke-miterlimit="10.0"><path d="M 73.1092,213.1513 l -12.6353,10.9978 l 5.8389,0.3297 l 3.0386,4.9968 Z"/></g><g stroke-linejoin="miter" stroke-opacity="1.0" fill-opacity="1.0" stroke="rgb(0,0,255)" stroke-width="0.0" fill="rgb(0,0,255)" stroke-linecap="butt" stroke-miterlimit="10.0"><path d="M 66.3128,224.4787 l -0.2105,0.3508 l -0.6673,-0.4004 l 0.8778,0.0496 l -0.2105,0.3508 l 0.6673,0.4004 Z"/></g><g stroke-linejoin="miter" stroke-opacity="1.0" fill-opacity="1.0" stroke="rgb(0,0,0)" stroke-width="0.0" fill="rgb(255,0,0)" stroke-linecap="butt" stroke-miterlimit="10.0"><path d="M 105.8824,162.7311 c 0.0000,-1.3923 -1.1287,-2.5210 -2.5210 -2.5210c -1.3923,-0.0000 -2.5210,1.1287 -2.5210 2.5210c -0.0000,1.3923 1.1287,2.5210 2.5210 2.5210c 1.3923,0.0000 2.5210,-1.1287 2.5210 -2.5210Z"/></g></svg>